<?xml version="1.0" encoding="utf-8"?>
<!-- Generator: Adobe Illustrator 22.1.0, SVG Export Plug-In . SVG Version: 6.00 Build 0)  -->
<svg version="1.1" id="Слой_1" xmlns="http://www.w3.org/2000/svg" xmlns:xlink="http://www.w3.org/1999/xlink" x="0px" y="0px"
	 viewBox="0 0 697.3 34.5" style="enable-background:new 0 0 697.3 34.5;" xml:space="preserve">
<style type="text/css">
	.st0{fill:#1B447F;}
</style>
<g id="Слой_x0020_1">
	<path class="st0" d="M680.1,0L680.1,0l-4.7,4.7l3.2,3.2l-3.1,3.1l-3.2-3.2l-1.5,1.5l3.2,3.2l-3.2,3.2l-3.2-3.2l-4.7,4.7l0,0l0,0
		l4.7,4.7l3.2-3.2l3.2,3.2l-3.2,3.2l1.5,1.5l3.2-3.2l3.1,3.1l-3.2,3.2l4.7,4.7l0,0l0,0l4.7-4.7l-3.2-3.2l3.1-3.1l3.2,3.2l1.5-1.5
		l-3.2-3.2l3.2-3.2l3.2,3.2l4.7-4.7l0,0l0,0l-4.7-4.7l-3.2,3.2l-3.2-3.2l3.2-3.2l-1.5-1.5l-3.2,3.2l-3.1-3.1l3.2-3.2L680.1,0
		L680.1,0z M672.2,17.3l7.8-7.8l7.8,7.8l-7.8,7.8L672.2,17.3z"/>
	<path class="st0" d="M632.7,0L632.7,0L628,4.7l3.2,3.2l-3.1,3.1l-3.2-3.2l-1.5,1.5l3.2,3.2l-3.2,3.2l-3.2-3.2l-4.7,4.7l0,0l0,0
		l4.7,4.7l3.2-3.2l3.2,3.2l-3.2,3.2l1.5,1.5l3.2-3.2l3.1,3.1l-3.2,3.2l4.7,4.7l0,0l0,0l4.7-4.7l-3.2-3.2l3.1-3.1l3.2,3.2l1.5-1.5
		l-3.2-3.2l3.2-3.2l3.2,3.2l4.7-4.7l0,0l0,0l-4.7-4.7l-3.2,3.2l-3.2-3.2l3.2-3.2l-1.5-1.5l-3.2,3.2l-3.1-3.1l3.2-3.2L632.7,0
		L632.7,0z M624.9,17.3l7.8-7.8l7.8,7.8l-7.8,7.8L624.9,17.3z"/>
	<path class="st0" d="M585.4,0L585.4,0l-4.7,4.7l3.2,3.2l-3.1,3.1l-3.2-3.2l-1.5,1.5l3.2,3.2l-3.2,3.2l-3.2-3.2l-4.7,4.7l0,0l0,0
		l4.7,4.7l3.2-3.2l3.2,3.2l-3.2,3.2l1.5,1.5l3.2-3.2l3.1,3.1l-3.2,3.2l4.7,4.7l0,0l0,0l4.7-4.7l-3.2-3.2l3.1-3.1l3.2,3.2l1.5-1.5
		l-3.2-3.2l3.2-3.2L598,22l4.7-4.7l0,0l0,0l-4.7-4.7l-3.2,3.2l-3.2-3.2l3.2-3.2l-1.5-1.5l-3.2,3.2l-3.1-3.1l3.2-3.2L585.4,0L585.4,0
		z M577.6,17.3l7.8-7.8l7.8,7.8l-7.8,7.8L577.6,17.3z"/>
	<path class="st0" d="M538.1,0L538.1,0l-4.7,4.7l3.2,3.2l-3.1,3.1l-3.2-3.2l-1.5,1.5l3.2,3.2l-3.2,3.2l-3.2-3.2l-4.7,4.7l0,0l0,0
		l4.7,4.7l3.2-3.2l3.2,3.2l-3.2,3.2l1.5,1.5l3.2-3.2l3.1,3.1l-3.2,3.2l4.7,4.7l0,0l0,0l4.7-4.7l-3.2-3.2l3.1-3.1l3.2,3.2l1.5-1.5
		l-3.2-3.2l3.2-3.2l3.2,3.2l4.7-4.7l0,0l0,0l-4.7-4.7l-3.2,3.2l-3.2-3.2l3.2-3.2l-1.5-1.5l-3.2,3.2l-3.1-3.1l3.2-3.2L538.1,0
		L538.1,0z M530.2,17.3l7.8-7.8l7.8,7.8l-7.8,7.8L530.2,17.3z"/>
	<path class="st0" d="M490.7,0L490.7,0L486,4.7l3.2,3.2l-3.1,3.1l-3.2-3.2l-1.5,1.5l3.2,3.2l-3.2,3.2l-3.2-3.2l-4.7,4.7l0,0l0,0
		l4.7,4.7l3.2-3.2l3.2,3.2l-3.2,3.2l1.5,1.5l3.2-3.2l3.1,3.1l-3.2,3.2l4.7,4.7l0,0l0,0l4.7-4.7l-3.2-3.2l3.1-3.1l3.2,3.2l1.5-1.5
		l-3.2-3.2l3.2-3.2l3.2,3.2l4.7-4.7l0,0l0,0l-4.7-4.7l-3.2,3.2l-3.2-3.2l3.2-3.2l-1.5-1.5l-3.2,3.2l-3.1-3.1l3.2-3.2L490.7,0
		L490.7,0z M482.9,17.3l7.8-7.8l7.8,7.8l-7.8,7.8L482.9,17.3z"/>
	<path class="st0" d="M443.4,0L443.4,0l-4.7,4.7l3.2,3.2l-3.1,3.1l-3.2-3.2L434,9.4l3.2,3.2l-3.2,3.2l-3.2-3.2l-4.7,4.7l0,0l0,0
		l4.7,4.7l3.2-3.2l3.2,3.2l-3.2,3.2l1.5,1.5l3.2-3.2l3.1,3.1l-3.2,3.2l4.7,4.7l0,0l0,0l4.7-4.7l-3.2-3.2l3.1-3.1l3.2,3.2l1.5-1.5
		l-3.2-3.2l3.2-3.2l3.2,3.2l4.7-4.7l0,0l0,0l-4.7-4.7l-3.2,3.2l-3.2-3.2l3.2-3.2l-1.5-1.5l-3.2,3.2l-3.1-3.1l3.2-3.2L443.4,0
		L443.4,0z M435.5,17.3l7.8-7.8l7.8,7.8l-7.8,7.8L435.5,17.3z"/>
	<path class="st0" d="M396,0L396,0l-4.7,4.7l3.2,3.2l-3.1,3.1l-3.2-3.2l-1.5,1.5l3.2,3.2l-3.2,3.2l-3.2-3.2l-4.7,4.7l0,0l0,0
		l4.7,4.7l3.2-3.2l3.2,3.2l-3.2,3.2l1.5,1.5l3.2-3.2l3.1,3.1l-3.2,3.2l4.7,4.7l0,0l0,0l4.7-4.7l-3.2-3.2l3.1-3.1l3.2,3.2l1.5-1.5
		l-3.2-3.2l3.2-3.2l3.2,3.2l4.7-4.7l0,0l0,0l-4.7-4.7l-3.2,3.2l-3.2-3.2l3.2-3.2l-1.5-1.5l-3.2,3.2l-3.1-3.1l3.2-3.2L396,0L396,0
		L396,0z M388.2,17.3l7.8-7.8l7.8,7.8l-7.8,7.8L388.2,17.3z"/>
	<path class="st0" d="M348.7,0L348.7,0L344,4.7l3.2,3.2l-3.1,3.1l-3.2-3.2l-1.5,1.5l3.2,3.2l-3.2,3.2l-3.2-3.2l-4.7,4.7l0,0l0,0
		l4.7,4.7l3.2-3.2l3.2,3.2l-3.2,3.2l1.5,1.5l3.2-3.2l3.1,3.1l-3.2,3.2l4.7,4.7l0,0l0,0l4.7-4.7l-3.2-3.2l3.1-3.1l3.2,3.2l1.5-1.5
		l-3.2-3.2l3.2-3.2l3.2,3.2l4.7-4.7l0,0l0,0l-4.7-4.7l-3.2,3.2l-3.2-3.2l3.2-3.2l-1.5-1.5l-3.2,3.2l-3.1-3.1l3.2-3.2L348.7,0
		L348.7,0L348.7,0z M340.8,17.3l7.8-7.8l7.8,7.8l-7.8,7.8L340.8,17.3z"/>
	<path class="st0" d="M301.3,0L301.3,0l-4.7,4.7l3.2,3.2l-3.1,3.1l-3.2-3.2L292,9.4l3.2,3.2l-3.2,3.2l-3.2-3.2l-4.7,4.7l0,0l0,0
		l4.7,4.7l3.2-3.2l3.2,3.2l-3.2,3.2l1.5,1.5l3.2-3.2l3.1,3.1l-3.2,3.2l4.7,4.7l0,0l0,0l4.7-4.7l-3.2-3.2l3.1-3.1l3.2,3.2l1.5-1.5
		l-3.2-3.2l3.2-3.2l3.2,3.2l4.7-4.7l0,0l0,0l-4.7-4.7l-3.2,3.2l-3.2-3.2l3.2-3.2l-1.5-1.5l-3.2,3.2l-3.1-3.1l3.2-3.2L301.3,0
		L301.3,0z M293.5,17.3l7.8-7.8l7.8,7.8l-7.8,7.8L293.5,17.3z"/>
	<path class="st0" d="M254,0L254,0l-4.7,4.7l3.2,3.2l-3.1,3.1l-3.2-3.2l-1.5,1.5l3.2,3.2l-3.2,3.2l-3.2-3.2l-4.7,4.7l0,0l0,0
		l4.7,4.7l3.2-3.2l3.2,3.2l-3.2,3.2l1.5,1.5l3.2-3.2l3.1,3.1l-3.2,3.2l4.7,4.7l0,0l0,0l4.7-4.7l-3.2-3.2l3.1-3.1l3.2,3.2l1.5-1.5
		l-3.2-3.2l3.2-3.2l3.2,3.2l4.7-4.7l0,0l0,0l-4.7-4.7l-3.2,3.2l-3.2-3.2l3.2-3.2l-1.5-1.5l-3.2,3.2l-3.1-3.1l3.2-3.2L254,0L254,0
		L254,0z M246.1,17.3l7.8-7.8l7.8,7.8l-7.8,7.8L246.1,17.3z"/>
	<path class="st0" d="M206.6,0L206.6,0l-4.7,4.7l3.2,3.2l-3.1,3.1l-3.2-3.2l-1.5,1.5l3.2,3.2l-3.2,3.2l-3.2-3.2l-4.7,4.7l0,0l0,0
		l4.7,4.7l3.2-3.2l3.2,3.2l-3.2,3.2l1.5,1.5l3.2-3.2l3.1,3.1l-3.2,3.2l4.7,4.7l0,0l0,0l4.7-4.7l-3.2-3.2l3.1-3.1l3.2,3.2l1.5-1.5
		l-3.2-3.2l3.2-3.2l3.2,3.2l4.7-4.7l0,0l0,0l-4.7-4.7l-3.2,3.2l-3.2-3.2l3.2-3.2l-1.5-1.5l-3.2,3.2l-3.1-3.1l3.2-3.2L206.6,0
		L206.6,0L206.6,0z M198.8,17.3l7.8-7.8l7.8,7.8l-7.8,7.8L198.8,17.3z"/>
	<path class="st0" d="M159.3,0L159.3,0l-4.7,4.7l3.2,3.2l-3.1,3.1l-3.2-3.2L150,9.4l3.2,3.2l-3.2,3.2l-3.2-3.2l-4.7,4.7l0,0l0,0
		l4.7,4.7l3.2-3.2l3.2,3.2l-3.2,3.2l1.5,1.5l3.2-3.2l3.1,3.1l-3.2,3.2l4.7,4.7l0,0l0,0l4.7-4.7l-3.2-3.2l3.1-3.1l3.2,3.2l1.5-1.5
		l-3.2-3.2l3.2-3.2l3.2,3.2l4.7-4.7l0,0l0,0l-4.7-4.7l-3.2,3.2l-3.2-3.2l3.2-3.2l-1.5-1.5l-3.2,3.2l-3.1-3.1l3.2-3.2L159.3,0
		L159.3,0L159.3,0z M151.5,17.3l7.8-7.8l7.8,7.8l-7.8,7.8L151.5,17.3z"/>
	<path class="st0" d="M112,0L112,0l-4.7,4.7l3.2,3.2l-3.1,3.1l-3.2-3.2l-1.5,1.5l3.2,3.2l-3.2,3.2l-3.2-3.2l-4.7,4.7l0,0l0,0
		l4.7,4.7l3.2-3.2l3.2,3.2l-3.2,3.2l1.5,1.5l3.2-3.2l3.1,3.1l-3.2,3.2l4.7,4.7l0,0l0,0l4.7-4.7l-3.2-3.2l3.1-3.1l3.2,3.2l1.5-1.5
		l-3.2-3.2l3.2-3.2l3.2,3.2l4.7-4.7l0,0l0,0l-4.7-4.7l-3.2,3.2l-3.2-3.2l3.2-3.2l-1.5-1.5l-3.2,3.2l-3.1-3.1l3.2-3.2L112,0L112,0
		L112,0z M104.1,17.3l7.8-7.8l7.8,7.8l-7.8,7.8L104.1,17.3L104.1,17.3z"/>
	<path class="st0" d="M64.6,0L64.6,0l-4.7,4.7l3.2,3.2L60,11.1l-3.2-3.2l-1.5,1.5l3.2,3.2l-3.2,3.2L52,12.5l-4.7,4.7l0,0l0,0
		l4.7,4.7l3.2-3.2l3.2,3.2l-3.2,3.2l1.5,1.5l3.2-3.2l3.1,3.1l-3.2,3.2l4.7,4.7l0,0l0,0l4.7-4.7l-3.2-3.2l3.1-3.1l3.2,3.2l1.5-1.5
		l-3.2-3.2l3.2-3.2l3.2,3.2l4.7-4.7l0,0l0,0l-4.7-4.7l-3.2,3.2l-3.2-3.2L74,9.4l-1.5-1.5l-3.2,3.2l-3.1-3.1l3.2-3.2L64.6,0L64.6,0
		L64.6,0z M56.8,17.3l7.8-7.8l7.8,7.8l-7.8,7.8C64.6,25.1,56.8,17.3,56.8,17.3z"/>
	<path class="st0" d="M17.3,0L17.3,0l-4.7,4.7l3.2,3.2l-3.1,3.1L9.4,7.9L7.9,9.4l3.2,3.2l-3.2,3.2l-3.2-3.2L0,17.2l0,0l0,0L4.7,22
		l3.2-3.2l3.2,3.2l-3.2,3.2l1.5,1.5l3.2-3.2l3.1,3.1l-3.2,3.2l4.7,4.7l0,0l0,0l4.7-4.7l-3.2-3.2l3.1-3.1l3.2,3.2l1.5-1.5l-3.2-3.2
		l3.2-3.2l3.2,3.2l4.7-4.7l0,0l0,0l-4.7-4.7l-3.2,3.2l-3.2-3.2l3.2-3.2l-1.5-1.5l-3.2,3.2l-3.1-3.1L22,4.7L17.3,0L17.3,0z M9.4,17.3
		l7.8-7.8l7.8,7.8l-7.8,7.8L9.4,17.3z"/>
</g>
</svg>
