<?xml version="1.0" encoding="utf-8"?>
<!-- Generator: Adobe Illustrator 22.1.0, SVG Export Plug-In . SVG Version: 6.00 Build 0)  -->
<svg version="1.1" id="Layer_1" xmlns="http://www.w3.org/2000/svg" xmlns:xlink="http://www.w3.org/1999/xlink" x="0px" y="0px"
	 viewBox="0 0 35 35" style="enable-background:new 0 0 35 35;" xml:space="preserve">
<style type="text/css">
	.st0{fill:#187DC6;}
	.st1{fill:#FFFFFF;}
</style>
<circle class="st0" cx="17.5" cy="17.5" r="17.5"/>
<g>
	<path class="st1" d="M22.1,6.1h-9.2c-3.8,0-6.8,3.1-6.8,6.8v9.2c0,3.8,3.1,6.8,6.8,6.8h9.2c3.8,0,6.8-3.1,6.8-6.8v-9.2
		C28.9,9.1,25.9,6.1,22.1,6.1z M26.6,22.1c0,2.5-2,4.5-4.5,4.5h-9.2c-2.5,0-4.5-2-4.5-4.5v-9.2c0-2.5,2-4.5,4.5-4.5h9.2
		c2.5,0,4.5,2,4.5,4.5V22.1L26.6,22.1z"/>
	<path class="st1" d="M17.5,11.6c-3.3,0-5.9,2.7-5.9,5.9s2.7,5.9,5.9,5.9s5.9-2.7,5.9-5.9S20.8,11.6,17.5,11.6z M17.5,21.1
		c-2,0-3.6-1.6-3.6-3.6s1.6-3.6,3.6-3.6s3.6,1.6,3.6,3.6S19.5,21.1,17.5,21.1z"/>
	<circle class="st1" cx="23.4" cy="11.6" r="1.4"/>
</g>
</svg>
