<svg xmlns="http://www.w3.org/2000/svg" xmlns:xlink="http://www.w3.org/1999/xlink" viewBox="0 0 12 20" style="enable-background:new 0 0 12 20;" xml:space="preserve">
<path fill="#E61736" d="M11.4,0.6C11,0.2,10.5,0,10,0H2C1.5,0,1,0.2,0.6,0.6C0.2,1,0,1.5,0,2v16c0,0.5,0.2,1,0.6,1.4  C1,19.8,1.5,20,2,20h8c0.5,0,1-0.2,1.4-0.6C11.8,19,12,18.5,12,18V2C12,1.5,11.8,1,11.4,0.6z M4.8,2h2.5c0.2,0,0.2,0.1,0.2,0.3  c0,0.2-0.1,0.3-0.2,0.3H4.8c-0.2,0-0.3-0.1-0.3-0.3C4.5,2.1,4.6,2,4.8,2z M6.9,18.9c-0.2,0.2-0.5,0.4-0.9,0.4  c-0.3,0-0.6-0.1-0.9-0.4c-0.2-0.2-0.4-0.5-0.4-0.9c0-0.3,0.1-0.6,0.4-0.9c0.2-0.2,0.5-0.4,0.9-0.4c0.3,0,0.6,0.1,0.9,0.4  c0.2,0.2,0.4,0.5,0.4,0.9C7.3,18.3,7.1,18.6,6.9,18.9z M10.5,15.5c0,0.1,0,0.3-0.1,0.4C10.3,16,10.1,16,10,16H2  c-0.1,0-0.3,0-0.4-0.1c-0.1-0.1-0.1-0.2-0.1-0.4v-11c0-0.1,0-0.3,0.1-0.4C1.7,4,1.9,4,2,4h8c0.1,0,0.3,0,0.4,0.1  c0.1,0.1,0.1,0.2,0.1,0.4L10.5,15.5L10.5,15.5L10.5,15.5z"/>
</svg>