<?xml version="1.0" encoding="utf-8"?>
<!-- Generator: Adobe Illustrator 22.1.0, SVG Export Plug-In . SVG Version: 6.00 Build 0)  -->
<svg version="1.1" id="Layer_1" xmlns="http://www.w3.org/2000/svg" xmlns:xlink="http://www.w3.org/1999/xlink" x="0px" y="0px"
	 viewBox="0 0 35 35" style="enable-background:new 0 0 35 35;" xml:space="preserve">
<style type="text/css">
	.st0{fill:#187DC6;}
	.st1{fill:#FFFFFF;}
</style>
<g>
	<g>
		<circle id="XMLID_1_" class="st0" cx="17.5" cy="17.5" r="17.5"/>
	</g>
</g>
<path class="st1" d="M9.2,10.5H6.6c-0.7,0-0.9,0.3-0.9,0.7c0,0.7,0.9,4.1,4.1,8.6c2.1,3.1,5.1,4.7,7.9,4.7c1.6,0,1.8-0.4,1.8-1v-2.3
	c0-0.7,0.2-0.9,0.7-0.9c0.4,0,1,0.2,2.6,1.7c1.8,1.8,2,2.5,3,2.5h2.6c0.7,0,1.1-0.4,0.9-1.1c-0.2-0.7-1.1-1.8-2.2-3
	c-0.6-0.7-1.5-1.5-1.8-1.9c-0.4-0.5-0.3-0.7,0-1.1c0,0,3.1-4.4,3.5-5.9c0.2-0.5,0-0.9-0.8-0.9h-2.6c-0.7,0-1,0.3-1.1,0.7
	c0,0-1.3,3.2-3.2,5.3c-0.6,0.6-0.9,0.8-1.2,0.8c-0.2,0-0.4-0.2-0.4-0.7v-5.1c0-0.7-0.2-0.9-0.7-0.9h-4.1c-0.4,0-0.7,0.3-0.7,0.6
	c0,0.6,0.9,0.8,1,2.5v3.8c0,0.8-0.2,1-0.5,1c-0.9,0-3-3.2-4.3-6.9C10.1,10.8,9.8,10.5,9.2,10.5z"/>
</svg>
