<?xml version="1.0" encoding="utf-8"?>
<!-- Generator: Adobe Illustrator 22.1.0, SVG Export Plug-In . SVG Version: 6.00 Build 0)  -->
<svg version="1.1" id="Слой_1" xmlns="http://www.w3.org/2000/svg" xmlns:xlink="http://www.w3.org/1999/xlink" x="0px" y="0px"
	 viewBox="0 0 743.8 400.9" style="enable-background:new 0 0 743.8 400.9;" xml:space="preserve">
<style type="text/css">
	.st0{fill:#163759;}
	.st1{fill:#2B2A29;}
	.st2{fill:url(#SVGID_1_);}
	.st3{fill:url(#SVGID_2_);}
	.st4{fill:url(#SVGID_3_);}
	.st5{fill:url(#SVGID_4_);}
	.st6{fill:url(#SVGID_5_);}
	.st7{fill:url(#SVGID_6_);}
	.st8{fill:url(#SVGID_7_);}
	.st9{fill:url(#SVGID_8_);}
	.st10{fill:url(#SVGID_9_);}
</style>
<g id="Слой_x0020_1">
	<polygon class="st0" points="343.8,240.7 338.5,240.7 338.5,209.4 331,209.4 331,240.7 317.4,240.7 317.4,209.4 309.8,209.4 
		309.8,247.4 337.3,247.4 337.6,254.8 343.8,254.8 	"/>
	<polygon class="st0" points="349.6,247.4 375,247.4 375,240.7 357,240.7 357,231.9 370.5,231.9 370.5,225.3 357,225.3 357,216.1 
		373.9,216.1 373.9,209.4 349.6,209.4 	"/>
	<polygon class="st0" points="381.6,247.4 389.2,247.4 389.2,232.6 404.7,232.6 404.7,247.4 412.2,247.4 412.2,209.4 404.7,209.4 
		404.7,225.9 389.2,225.9 389.2,209.4 381.6,209.4 	"/>
	<polygon class="st0" points="428.2,247.4 435.8,247.4 435.8,216.1 446.3,216.1 446.3,209.4 417.8,209.4 417.8,216.1 428.2,216.1 	
		"/>
	<path class="st0" d="M451.9,247.4h7.4v-13h5.9c8.3,0,14-4,14-12.4c0-7.3-4-12.6-13.2-12.6h-14.1V247.4z M459.3,227.8v-11.7h5.5
		c4.3,0,6.6,2.3,6.6,5.8c0,3.5-2.2,5.8-7,5.8H459.3z"/>
	<path class="st0" d="M19.4,304c6.7,0,11.8-3.1,15.1-7.2l-5.5-4.8c-2.3,2.8-5.6,4.8-9.6,4.8c-6.8,0-11.5-5.1-11.5-12.1
		c0-7.6,4.9-12.4,11.4-12.4c3.9,0,7.1,1.8,9.6,4.8l5.6-4.7c-4.1-5-9.7-7.3-15.1-7.3C7,265.2,0,273.9,0,284.8
		C0,297.3,8.8,304,19.4,304z"/>
	<polygon class="st0" points="47.9,303.7 55.5,303.7 55.5,272.4 66.1,272.4 66.1,265.7 37.6,265.7 37.6,272.4 47.9,272.4 	"/>
	<path class="st0" d="M71.6,303.7h7.4v-13h5.9c8.3,0,14-4,14-12.4c0-7.3-4-12.6-13.2-12.6H71.6V303.7z M79.1,284v-11.7h5.5
		c4.3,0,6.6,2.3,6.6,5.8c0,3.5-2.2,5.8-7,5.8H79.1L79.1,284z"/>
	<path class="st0" d="M98.5,303.7h7.9l2.6-7.6h14.5l2.6,7.6h7.9l-14.1-38h-7.3L98.5,303.7L98.5,303.7z M111.1,289.6l5.1-14.9h0.1
		l5.1,14.9H111.1z"/>
	<polygon class="st0" points="142.8,303.7 150.4,303.7 150.4,272.4 161,272.4 161,265.7 132.4,265.7 132.4,272.4 142.8,272.4 	"/>
	<polygon class="st0" points="166.5,303.7 191.9,303.7 191.9,297 174,297 174,288.1 187.4,288.1 187.4,281.5 174,281.5 174,272.4 
		190.8,272.4 190.8,265.7 166.5,265.7 	"/>
	<polygon class="st0" points="198.5,303.7 206.2,303.7 206.2,272.4 223,272.4 223,265.7 198.5,265.7 	"/>
	<polygon class="st0" points="228.8,303.7 235.8,303.7 252.4,278.5 252.5,278.5 252.5,303.7 260,303.7 260,265.7 253.2,265.7 
		236.5,291.4 236.4,291.3 236.4,265.7 228.8,265.7 	"/>
	<path class="st0" d="M287.7,265.7v17.1c-1.9,1-4.6,1.4-7,1.4c-3.9,0-5.8-1.2-5.8-6.6v-12h-7.5v13c0,8.1,3.3,12.5,10.9,12.5
		c3.5,0,7.3-0.9,9.5-2v14.5h7.5v-38L287.7,265.7L287.7,265.7z"/>
	<polygon class="st0" points="303.5,303.7 328.9,303.7 328.9,297 310.9,297 310.9,288.1 324.4,288.1 324.4,281.5 310.9,281.5 
		310.9,272.4 327.7,272.4 327.7,265.7 303.5,265.7 	"/>
	<path class="st0" d="M352,304c6.7,0,11.8-3.1,15.1-7.2l-5.5-4.8c-2.3,2.8-5.6,4.8-9.6,4.8c-6.8,0-11.5-5.1-11.5-12.1
		c0-7.6,4.9-12.4,11.4-12.4c3.9,0,7.1,1.8,9.6,4.8l5.6-4.7c-4.1-5-9.7-7.3-15.1-7.3c-12.3,0-19.3,8.7-19.3,19.6
		C332.7,297.3,341.4,304,352,304L352,304z"/>
	<polygon class="st0" points="372.8,303.7 380.4,303.7 380.4,292.8 384.1,288.4 394.2,303.7 403.5,303.7 389,282.4 403.1,265.7 
		393.5,265.7 380.5,282.3 380.4,282.3 380.4,265.7 372.8,265.7 	"/>
	<polygon class="st0" points="408.3,303.7 415.3,303.7 431.9,278.5 432,278.5 432,303.7 439.5,303.7 439.5,265.7 432.7,265.7 
		415.9,291.4 415.8,291.3 415.8,265.7 408.3,265.7 	"/>
	<polygon class="st0" points="445,303.7 453.7,303.7 462.2,290.4 462.4,290.4 470.9,303.7 479.8,303.7 467.4,284.6 479.4,265.7 
		470.8,265.7 462.5,278.8 462.4,278.8 454.1,265.7 445.3,265.7 457.4,284.6 	"/>
	<path class="st0" d="M134.9,359.9h7.4v-13h5.9c8.3,0,14-4,14-12.4c0-7.3-4-12.6-13.2-12.6h-14.1V359.9z M142.3,340.3v-11.7h5.5
		c4.3,0,6.6,2.3,6.6,5.8c0,3.5-2.2,5.8-7,5.8H142.3L142.3,340.3z"/>
	<path class="st0" d="M161.8,359.9h7.9l2.6-7.6h14.5l2.6,7.6h7.9l-14.1-38h-7.3L161.8,359.9L161.8,359.9z M174.4,345.9l5.1-14.9h0.1
		l5.1,14.9H174.4L174.4,345.9z"/>
	<path class="st0" d="M213.9,360.4c9.5,0,14.8-4.7,14.8-11.6c0-5-2.8-8-7.5-9.2v-0.1c4-1.6,5.7-5.2,5.7-8.7c0-5.7-4.7-9.4-12.6-9.4
		c-5.1,0-10.4,1.7-13.3,4.2l3.9,5.8c2.7-2.1,5.6-3.1,8.7-3.1c3.8,0,5.7,1.5,5.7,4.2c0,2.9-2.2,4.7-6.3,4.7h-5v6.3h5.7
		c5,0,7.2,1.9,7.2,4.9c0,3.2-2.5,5-6.8,5c-3.6,0-7.2-1.2-9.9-4.7l-4.7,5.7C203,358.6,208.2,360.4,213.9,360.4L213.9,360.4z"/>
	<path class="st0" d="M234.9,359.9h7.4v-13h5.9c8.3,0,14-4,14-12.4c0-7.3-4-12.6-13.2-12.6h-14.1V359.9z M242.3,340.3v-11.7h5.5
		c4.3,0,6.6,2.3,6.6,5.8c0,3.5-2.2,5.8-7,5.8H242.3z"/>
	<path class="st0" d="M261.8,359.9h7.9l2.6-7.6h14.5l2.6,7.6h7.9l-14.1-38h-7.3L261.8,359.9L261.8,359.9z M274.4,345.9l5.1-14.9h0.1
		l5.1,14.9H274.4L274.4,345.9z"/>
	<path class="st0" d="M302.2,359.9h13.6c10.4,0,14-4.7,14-12.5c0-6.6-3.6-11.3-13.7-11.3h-6.4v-7.5h17.2v-6.7h-24.6V359.9z
		 M309.6,353.3v-10.6h6.3c3.7,0,6,1.6,6,5.2c0,3.5-2,5.4-6.1,5.4H309.6L309.6,353.3z"/>
	<path class="st0" d="M353.3,360.4c11.1,0,19.3-7.9,19.3-19.5c0-11.6-8.2-19.5-19.3-19.5c-11.5,0-19.4,8.2-19.4,19.5
		C333.9,352.2,341.8,360.4,353.3,360.4z M353.3,353.3c-6.8,0-11.6-5.5-11.6-12.4c0-6.9,4.7-12.4,11.6-12.4c6.5,0,11.4,5.2,11.4,12.4
		C364.7,348.1,359.8,353.3,353.3,353.3z"/>
	<polygon class="st0" points="384.6,359.9 392.2,359.9 392.2,328.6 402.7,328.6 402.7,321.9 374.2,321.9 374.2,328.6 384.6,328.6 	
		"/>
	<path class="st0" d="M423.7,360.4c11.1,0,19.3-7.9,19.3-19.5c0-11.6-8.2-19.5-19.3-19.5c-11.5,0-19.4,8.2-19.4,19.5
		C404.3,352.2,412.2,360.4,423.7,360.4z M423.7,353.3c-6.8,0-11.6-5.5-11.6-12.4c0-6.9,4.7-12.4,11.6-12.4c6.5,0,11.4,5.2,11.4,12.4
		C435.2,348.1,430.2,353.3,423.7,353.3z"/>
	<polygon class="st0" points="449.7,359.9 457.2,359.9 457.2,349 460.9,344.6 471.1,359.9 480.4,359.9 465.9,338.7 479.9,321.9 
		470.4,321.9 457.4,338.5 457.2,338.5 457.2,321.9 449.7,321.9 	"/>
	<path class="st1" d="M135.5,400.6h3.4v-10.5h5.6c5.7,0,9.6-2.7,9.6-8.4c0-4.9-2.7-8.5-9.1-8.5h-9.6V400.6z M138.9,387.1v-10.8h5.9
		c3.7,0,5.9,1.9,5.9,5.4c0,3.2-1.9,5.5-6.5,5.5H138.9z"/>
	<polygon class="st1" points="159.1,400.6 176.7,400.6 176.7,397.6 162.5,397.6 162.5,388.5 173.5,388.5 173.5,385.4 162.5,385.4 
		162.5,376.3 175.9,376.3 175.9,373.2 159.1,373.2 	"/>
	<path class="st1" d="M193.5,400.8c4.8,0,8.3-2.2,10.7-5.2l-2.5-2.1c-1.9,2.4-4.6,4.1-8.2,4.1c-5.8,0-10.1-4.1-10.1-10.6
		c0-6.3,3.9-10.8,10.1-10.8c3.1,0,5.9,1.3,8.2,4.1l2.5-2.1c-2.9-3.5-6.7-5.2-10.7-5.2c-8.8,0-13.6,6.3-13.6,14
		C179.8,395.9,186.1,400.8,193.5,400.8z"/>
	<polygon class="st1" points="208.9,400.6 212.3,400.6 212.3,376.3 225.6,376.3 225.6,400.6 229,400.6 229,373.2 208.9,373.2 	"/>
	<path class="st1" d="M252.9,373.2l-7.1,16.2h-0.1l-8.8-16.2h-3.8l11.1,20c-1,2.9-2.1,4.4-4.2,4.4c-1,0-2.1-0.3-3.2-1.1l-1.2,2.9
		c1,0.9,3.1,1.4,4.4,1.4c4.3,0,5.6-3.3,7.3-7.2l9.1-20.4L252.9,373.2L252.9,373.2z"/>
	<path class="st1" d="M260.3,400.6h9.2c6.4,0,9.6-2.9,9.6-8.4c0-4.9-2.9-8-9.5-8h-5.9v-7.9h13.2v-3h-16.6L260.3,400.6L260.3,400.6z
		 M263.6,397.6v-10.5h5.9c4,0,6.1,1.9,6.1,5.2c0,3.2-1.8,5.2-6.1,5.2H263.6z"/>
	<path class="st1" d="M288.5,373.2c-0.2,5.2-0.4,10.8-0.9,14.8c-0.8,6.3-1.8,9.6-4.9,9.6c-0.4,0-1,0-1.3-0.1l-0.3,2.8
		c0.5,0.2,1.5,0.3,2.4,0.3c4.6,0,6.5-3.7,7.3-11.5c0.4-3.5,0.7-8.5,1-13h9.7v24.3h3.4v-27.4L288.5,373.2L288.5,373.2z"/>
	<polygon class="st1" points="311.6,400.6 314.6,400.6 329.7,379 329.8,379 329.8,400.6 333.1,400.6 333.1,373.2 330.2,373.2 
		315.1,395 315,395 315,373.2 311.6,373.2 	"/>
	<polygon class="st1" points="339.9,400.6 343.3,400.6 343.3,393 347.3,388.3 356.2,400.6 360.4,400.6 349.5,385.7 360.1,373.2 
		355.8,373.2 343.4,388.2 343.3,388.2 343.3,373.2 339.9,373.2 	"/>
	<polygon class="st1" points="364.8,400.6 367.8,400.6 382.9,379 383,379 383,400.6 386.4,400.6 386.4,373.2 383.4,373.2 368.3,395 
		368.2,395 368.2,373.2 364.8,373.2 	"/>
	<path class="st1" d="M403.6,400.6h9.2c6.4,0,9.6-2.9,9.6-8.4c0-4.9-2.9-8-9.5-8H407v-7.9h13.2v-3h-16.6L403.6,400.6L403.6,400.6z
		 M407,397.6v-10.5h5.9c4,0,6.1,1.9,6.1,5.2c0,3.2-1.8,5.2-6.1,5.2H407z"/>
	<path class="st1" d="M425,400.6h3.5l2.4-6.7h12.2l2.5,6.7h3.5l-10.4-27.4h-3.4L425,400.6z M432,391l5-13.7h0.1l5.1,13.7H432
		L432,391z"/>
	<polygon class="st1" points="480.6,373.2 480.6,397.6 470.4,397.6 470.4,373.2 467,373.2 467,397.6 456.8,397.6 456.8,373.2 
		453.4,373.2 453.4,400.6 484,400.6 484,373.2 	"/>
	<polygon class="st1" points="490.7,400.6 494.1,400.6 494.1,393 498.1,388.3 507,400.6 511.2,400.6 500.3,385.7 510.9,373.2 
		506.6,373.2 494.2,388.2 494.1,388.2 494.1,373.2 490.7,373.2 	"/>
	<path class="st1" d="M526.4,400.8c7.7,0,13.7-5.6,13.7-13.9c0-8.4-6-14-13.7-14c-8,0-13.8,5.8-13.8,14
		C512.6,395.1,518.4,400.8,526.4,400.8z M526.4,397.7c-5.9,0-10.3-4.6-10.3-10.8c0-6.2,4.3-10.8,10.3-10.8c5.7,0,10.1,4.4,10.1,10.8
		C536.6,393.2,532.1,397.7,526.4,397.7z"/>
	<path class="st1" d="M545.7,400.6h3.4v-10.5h5.6c5.7,0,9.6-2.7,9.6-8.4c0-4.9-2.7-8.5-9.1-8.5h-9.6L545.7,400.6L545.7,400.6z
		 M549,387.1v-10.8h5.9c3.7,0,5.9,1.9,5.9,5.4c0,3.2-1.9,5.5-6.5,5.5H549L549,387.1z"/>
	<polygon class="st1" points="575.2,400.6 578.6,400.6 578.6,376.3 586.9,376.3 586.9,373.2 567.1,373.2 567.1,376.3 575.2,376.3 	
		"/>
	<path class="st1" d="M602.1,400.8c7.7,0,13.7-5.6,13.7-13.9c0-8.4-6-14-13.7-14c-8,0-13.8,5.8-13.8,14
		C588.3,395.1,594.1,400.8,602.1,400.8z M602.1,397.7c-5.9,0-10.3-4.6-10.3-10.8c0-6.2,4.3-10.8,10.3-10.8c5.7,0,10.1,4.4,10.1,10.8
		C612.3,393.2,607.8,397.7,602.1,397.7z"/>
	<path class="st1" d="M633.8,400.8c4.8,0,8.3-2.2,10.7-5.2l-2.5-2.1c-1.9,2.4-4.6,4.1-8.2,4.1c-5.8,0-10.1-4.1-10.1-10.6
		c0-6.3,3.9-10.8,10.1-10.8c3.1,0,5.9,1.3,8.2,4.1l2.5-2.1c-2.9-3.5-6.7-5.2-10.7-5.2c-8.8,0-13.6,6.3-13.6,14
		C620.2,395.9,626.4,400.8,633.8,400.8z"/>
	<polygon class="st1" points="655.2,400.6 658.6,400.6 658.6,376.3 666.9,376.3 666.9,373.2 647,373.2 647,376.3 655.2,376.3 	"/>
	<path class="st1" d="M666.3,400.6h3.5l2.4-6.7h12.2l2.5,6.7h3.5L680,373.2h-3.4L666.3,400.6z M673.3,391l5-13.7h0.1l5.1,13.7H673.3
		L673.3,391z"/>
	<polygon class="st1" points="694.7,400.6 698.1,400.6 698.1,389.1 712.4,389.1 712.4,400.6 715.8,400.6 715.8,373.2 712.4,373.2 
		712.4,386.1 698.1,386.1 698.1,373.2 694.7,373.2 	"/>
	
		<linearGradient id="SVGID_1_" gradientUnits="userSpaceOnUse" x1="42639.8281" y1="-4585.2788" x2="37681.5391" y2="-2289.3989" gradientTransform="matrix(2.834646e-02 0 0 -2.834646e-02 -590.1937 -18.9469)">
		<stop  offset="0" style="stop-color:#1C70B6"/>
		<stop  offset="1" style="stop-color:#1B2F4A"/>
	</linearGradient>
	<polygon class="st2" points="469,173.1 285.3,125.8 743.8,0 	"/>
	
		<linearGradient id="SVGID_2_" gradientUnits="userSpaceOnUse" x1="43254.9805" y1="-5809.8481" x2="41914.0703" y2="-3121.6882" gradientTransform="matrix(2.834646e-02 0 0 -2.834646e-02 -590.1937 -18.9469)">
		<stop  offset="0" style="stop-color:#009846"/>
		<stop  offset="1" style="stop-color:#063C2C"/>
	</linearGradient>
	<polygon class="st3" points="743.8,0 469,173.1 569.6,281.6 	"/>
	
		<linearGradient id="SVGID_3_" gradientUnits="userSpaceOnUse" x1="41429.3867" y1="-3743.9031" x2="43849.0977" y2="-3676.8728" gradientTransform="matrix(2.834646e-02 0 0 -2.834646e-02 -590.1937 -18.9469)">
		<stop  offset="0" style="stop-color:#D9DADA"/>
		<stop  offset="1" style="stop-color:#FEFEFE"/>
	</linearGradient>
	<polygon class="st4" points="469,173.1 414,159 743.8,0 	"/>
	
		<linearGradient id="SVGID_4_" gradientUnits="userSpaceOnUse" x1="41564.3008" y1="-9548.4854" x2="39623.3125" y2="-5200.856" gradientTransform="matrix(2.834646e-02 0 0 -2.834646e-02 -590.1937 -18.9469)">
		<stop  offset="0" style="stop-color:#009846"/>
		<stop  offset="1" style="stop-color:#063C2C"/>
	</linearGradient>
	<polygon class="st5" points="636.8,173 552.1,120.8 469,173.1 569.6,281.6 	"/>
	
		<linearGradient id="SVGID_5_" gradientUnits="userSpaceOnUse" x1="46878.8125" y1="-4286.27" x2="45597.8828" y2="-1792.8405" gradientTransform="matrix(2.834646e-02 0 0 -2.834646e-02 -590.1937 -18.9469)">
		<stop  offset="0" style="stop-color:#009846"/>
		<stop  offset="1" style="stop-color:#063C2C"/>
	</linearGradient>
	<polygon class="st6" points="743.8,0 675.4,43.1 680.6,102.2 	"/>
	
		<linearGradient id="SVGID_6_" gradientUnits="userSpaceOnUse" x1="37973.7969" y1="-5808.6177" x2="38992.9688" y2="-5638.228" gradientTransform="matrix(2.834646e-02 0 0 -2.834646e-02 -590.1937 -18.9469)">
		<stop  offset="0" style="stop-color:#D9DADA"/>
		<stop  offset="1" style="stop-color:#FEFEFE"/>
	</linearGradient>
	<polygon class="st7" points="469,173.1 414,159 495.7,119.6 552.1,120.8 	"/>
	
		<linearGradient id="SVGID_7_" gradientUnits="userSpaceOnUse" x1="45335.3594" y1="-1524.7913" x2="46075.8398" y2="-1504.3213" gradientTransform="matrix(2.834646e-02 0 0 -2.834646e-02 -590.1937 -18.9469)">
		<stop  offset="0" style="stop-color:#D9DADA"/>
		<stop  offset="1" style="stop-color:#FEFEFE"/>
	</linearGradient>
	<polygon class="st8" points="675.4,43.1 642.9,48.6 743.8,0 	"/>
	
		<linearGradient id="SVGID_8_" gradientUnits="userSpaceOnUse" x1="36342.2773" y1="-5981.0698" x2="33980.0781" y2="-4650.0396" gradientTransform="matrix(2.834646e-02 0 0 -2.834646e-02 -590.1937 -18.9469)">
		<stop  offset="0" style="stop-color:#1C70B6"/>
		<stop  offset="1" style="stop-color:#1B2F4A"/>
	</linearGradient>
	<polygon class="st9" points="414,159 285.3,125.8 348.4,108.5 495.7,119.6 	"/>
	
		<linearGradient id="SVGID_9_" gradientUnits="userSpaceOnUse" x1="45125.3438" y1="-2383.1426" x2="42954.7031" y2="-1378.0823" gradientTransform="matrix(2.834646e-02 0 0 -2.834646e-02 -590.1937 -18.9469)">
		<stop  offset="0" style="stop-color:#1C70B6"/>
		<stop  offset="1" style="stop-color:#1B2F4A"/>
	</linearGradient>
	<polygon class="st10" points="642.9,48.6 543.1,55.1 743.8,0 	"/>
</g>
</svg>
