<?xml version="1.0" encoding="utf-8"?>
<!-- Generator: Adobe Illustrator 22.1.0, SVG Export Plug-In . SVG Version: 6.00 Build 0)  -->
<svg version="1.1" id="Слой_1" xmlns="http://www.w3.org/2000/svg" xmlns:xlink="http://www.w3.org/1999/xlink" x="0px" y="0px"
	 viewBox="0 0 240.2 298" style="enable-background:new 0 0 240.2 298;" xml:space="preserve">
<style type="text/css">
	.st0{fill:url(#SVGID_1_);}
	.st1{fill:url(#SVGID_2_);}
	.st2{fill:#0B497A;}
	.st3{fill:url(#SVGID_3_);}
	.st4{fill:url(#SVGID_4_);}
	.st5{fill:url(#SVGID_5_);}
	.st6{fill:url(#SVGID_6_);}
	.st7{fill:url(#SVGID_7_);}
	.st8{fill:url(#SVGID_8_);}
	.st9{fill:url(#SVGID_9_);}
	.st10{fill:url(#SVGID_10_);}
	.st11{fill:url(#SVGID_11_);}
	.st12{fill:url(#SVGID_12_);}
</style>
<g id="_x31_5">
	
		<linearGradient id="SVGID_1_" gradientUnits="userSpaceOnUse" x1="186.4095" y1="-47.5063" x2="240.2161" y2="-47.5063" gradientTransform="matrix(1 0 0 -1 0 197.4)">
		<stop  offset="0" style="stop-color:#263039"/>
		<stop  offset="3.137250e-02" style="stop-color:#263039"/>
		<stop  offset="1" style="stop-color:#00A181"/>
	</linearGradient>
	<polygon class="st0" points="240.2,227.5 186.4,227.5 186.4,227.5 213.4,262.3 213.4,262.3 	"/>
</g>
<g id="_x31_4">
	
		<linearGradient id="SVGID_2_" gradientUnits="userSpaceOnUse" x1="74674.375" y1="-18794.8652" x2="69811.1484" y2="-19917.6289" gradientTransform="matrix(2.834646e-02 0 0 -2.834646e-02 -1876.2787 -293.4669)">
		<stop  offset="0" style="stop-color:#899297"/>
		<stop  offset="0.4659" style="stop-color:#899297"/>
		<stop  offset="1" style="stop-color:#FCFAF7"/>
	</linearGradient>
	<polyline class="st1" points="138.4,298 184.8,238.4 92.2,238.4 	"/>
</g>
<g id="_x31_3">
	<polygon class="st2" points="138.4,298 92.2,238.4 92.2,238.4 46,298 	"/>
</g>
<g id="_x31_2">
	
		<linearGradient id="SVGID_3_" gradientUnits="userSpaceOnUse" x1="67816.4297" y1="-18763.6074" x2="67816.4297" y2="-20870.666" gradientTransform="matrix(2.834646e-02 0 0 -2.834646e-02 -1876.2787 -293.4669)">
		<stop  offset="0" style="stop-color:#1B68A1"/>
		<stop  offset="1" style="stop-color:#1C455F"/>
	</linearGradient>
	<polygon class="st3" points="92.2,238.4 0,238.4 0,238.9 45.8,298 46,298 	"/>
</g>
<g id="_x31_1">
	
		<linearGradient id="SVGID_4_" gradientUnits="userSpaceOnUse" x1="0" y1="-71.0326" x2="45.7769" y2="-71.0326" gradientTransform="matrix(1 0 0 -1 0 197.4)">
		<stop  offset="0" style="stop-color:#263039"/>
		<stop  offset="3.137250e-02" style="stop-color:#263039"/>
		<stop  offset="1" style="stop-color:#00A181"/>
	</linearGradient>
	<polygon class="st4" points="45.8,298 0,238.9 0,298 	"/>
</g>
<g id="_x31_0">
	<polygon class="st2" points="105.1,221.7 92.2,238.4 184.8,238.4 138.5,178.7 	"/>
</g>
<g id="_x39_">
	
		<linearGradient id="SVGID_5_" gradientUnits="userSpaceOnUse" x1="67811.1406" y1="-17708.625" x2="71075.3672" y2="-17708.625" gradientTransform="matrix(2.834646e-02 0 0 -2.834646e-02 -1876.2787 -293.4669)">
		<stop  offset="0" style="stop-color:#263039"/>
		<stop  offset="3.137250e-02" style="stop-color:#263039"/>
		<stop  offset="1" style="stop-color:#00A181"/>
	</linearGradient>
	<polygon class="st5" points="138.5,178.7 45.9,178.7 92.2,238.3 125.5,195.3 	"/>
</g>
<g id="_x38_">
	
		<linearGradient id="SVGID_6_" gradientUnits="userSpaceOnUse" x1="65662.9766" y1="-16751.0801" x2="69044.75" y2="-19174.4941" gradientTransform="matrix(2.834646e-02 0 0 -2.834646e-02 -1876.2787 -293.4669)">
		<stop  offset="0" style="stop-color:#899297"/>
		<stop  offset="0.3686" style="stop-color:#899297"/>
		<stop  offset="1" style="stop-color:#FCFAF7"/>
	</linearGradient>
	<polygon class="st6" points="0,238.4 92.2,238.4 45.9,178.7 0,237.9 	"/>
</g>
<g id="_x37_">
	
		<linearGradient id="SVGID_7_" gradientUnits="userSpaceOnUse" x1="0" y1="-10.8848" x2="45.927" y2="-10.8848" gradientTransform="matrix(1 0 0 -1 0 197.4)">
		<stop  offset="0" style="stop-color:#263039"/>
		<stop  offset="3.137250e-02" style="stop-color:#263039"/>
		<stop  offset="1" style="stop-color:#00A181"/>
	</linearGradient>
	<polygon class="st7" points="0,237.9 45.9,178.7 45.9,178.7 45.9,178.7 0,178.7 	"/>
</g>
<g id="_x36_">
	
		<linearGradient id="SVGID_8_" gradientUnits="userSpaceOnUse" x1="71385.4297" y1="-14891.8516" x2="67306.0703" y2="-17465.1113" gradientTransform="matrix(2.834646e-02 0 0 -2.834646e-02 -1876.2787 -293.4669)">
		<stop  offset="0" style="stop-color:#0B497A"/>
		<stop  offset="1" style="stop-color:#0C659E"/>
	</linearGradient>
	<polygon class="st8" points="45.9,178.7 138.5,178.7 92.2,118.9 	"/>
</g>
<g id="_x35_">
	<polygon class="st2" points="45.9,178.7 45.9,178.7 92.2,118.9 92.2,118.9 0,118.9 0,119.4 	"/>
</g>
<g id="_x34_">
	
		<linearGradient id="SVGID_9_" gradientUnits="userSpaceOnUse" x1="67629.5859" y1="-13781.0322" x2="66612.4141" y2="-16735.1152" gradientTransform="matrix(2.834646e-02 0 0 -2.834646e-02 -1876.2787 -293.4669)">
		<stop  offset="0" style="stop-color:#899297"/>
		<stop  offset="0.5794" style="stop-color:#899297"/>
		<stop  offset="0.6706" style="stop-color:#90989C"/>
		<stop  offset="0.8019" style="stop-color:#A3A8AA"/>
		<stop  offset="0.9568" style="stop-color:#C2C2C2"/>
		<stop  offset="1" style="stop-color:#CCCBC9"/>
	</linearGradient>
	<polyline class="st9" points="0,178.7 46,178.7 0,118.9 	"/>
</g>
<g id="_x33_">
	
		<linearGradient id="SVGID_10_" gradientUnits="userSpaceOnUse" x1="60.1478" y1="108.9231" x2="60.1478" y2="144.7941" gradientTransform="matrix(1 0 0 -1 0 197.4)">
		<stop  offset="0" style="stop-color:#263039"/>
		<stop  offset="1" style="stop-color:#00A181"/>
	</linearGradient>
	<polygon class="st10" points="60.1,52.6 32.3,88.5 32.3,88.5 88,88.5 	"/>
</g>
<g id="_x32_">
	
		<linearGradient id="SVGID_11_" gradientUnits="userSpaceOnUse" x1="64649.8828" y1="-12079.6025" x2="67579.2188" y2="-13831.9043" gradientTransform="matrix(2.834646e-02 0 0 -2.834646e-02 -1876.2787 -293.4669)">
		<stop  offset="0" style="stop-color:#263038"/>
		<stop  offset="1" style="stop-color:#0B497A"/>
	</linearGradient>
	<polygon class="st11" points="0,59.2 0,118.4 45.9,59.2 45.9,59.2 45.9,59.2 	"/>
</g>
<g id="_x31_">
	
		<linearGradient id="SVGID_12_" gradientUnits="userSpaceOnUse" x1="0" y1="167.7951" x2="45.8519" y2="167.7951" gradientTransform="matrix(1 0 0 -1 0 197.4)">
		<stop  offset="0" style="stop-color:#263039"/>
		<stop  offset="3.137250e-02" style="stop-color:#263039"/>
		<stop  offset="1" style="stop-color:#00A181"/>
	</linearGradient>
	<polygon class="st12" points="0,59.2 45.9,59.2 0,0 	"/>
</g>
</svg>
