<?xml version="1.0" encoding="utf-8"?>
<!-- Generator: Adobe Illustrator 22.1.0, SVG Export Plug-In . SVG Version: 6.00 Build 0)  -->
<svg version="1.1" id="Слой_1" xmlns="http://www.w3.org/2000/svg" xmlns:xlink="http://www.w3.org/1999/xlink" x="0px" y="0px"
	 viewBox="0 0 25 25" style="enable-background:new 0 0 25 25;" xml:space="preserve">
<style type="text/css">
	.st0{fill:#FFFFFF;}
</style>
<g>
	<path class="st0" d="M9.3,14.6h1.6c0.4,0,0.8-0.4,0.8-0.8c0-0.4-0.4-0.8-0.8-0.8H9.3V14.6z"/>
	<path class="st0" d="M22.3,9.4h-6.2V7.2l-5-5.9H1.9C0.9,1.3,0,2.2,0,3.2v18.7c0,1.1,0.9,1.9,1.9,1.9h12.2c1.1,0,1.9-0.9,1.9-1.9
		v-1.3h6.2c1.5,0,2.7-1.2,2.7-2.7v-5.7C25,10.7,23.8,9.4,22.3,9.4z M11.2,3.7L14,7h-2.3c-0.3,0-0.5-0.2-0.5-0.5V3.7z M14.6,21.9
		c0,0.3-0.2,0.5-0.5,0.5H1.9c-0.3,0-0.5-0.2-0.5-0.5V3.2c0-0.3,0.2-0.5,0.5-0.5h7.8v3.8c0,1.1,0.9,1.9,1.9,1.9h2.9v1H8.4
		c-1.5,0-2.7,1.2-2.7,2.7v5.7c0,1.5,1.2,2.7,2.7,2.7h6.2V21.9z M12.5,13.8c0,0.9-0.7,1.6-1.6,1.6H9.3v2.4H8.4v-4.1v-1.6h2.4
		C11.8,12.2,12.5,12.9,12.5,13.8z M17.4,16.2c0,0.9-0.7,1.6-1.6,1.6h-2.4v-5.7h2.4c0.9,0,1.6,0.7,1.6,1.6V16.2z M22.3,13H19v1.6h2.4
		v0.8H19v2.4h-0.8v-5.7h4.1V13z"/>
	<path class="st0" d="M15.8,13h-1.6v4.1h1.6c0.4,0,0.8-0.4,0.8-0.8v-2.4C16.6,13.4,16.2,13,15.8,13z"/>
</g>
</svg>
