<?xml version="1.0" encoding="utf-8"?>
<!-- Generator: Adobe Illustrator 22.1.0, SVG Export Plug-In . SVG Version: 6.00 Build 0)  -->
<svg version="1.1" id="Слой_1" xmlns="http://www.w3.org/2000/svg" xmlns:xlink="http://www.w3.org/1999/xlink" x="0px" y="0px"
	 viewBox="0 0 31.1 30" style="enable-background:new 0 0 31.1 30;" xml:space="preserve">
<style type="text/css">
	.st0{fill:#187DC6;}
</style>
<title></title>
<g id="g2742" transform="translate(-983.85653,1871.9991)">
	<path class="st0" d="M1014.2-1847.2h-29.5c-0.4,0-0.8-0.4-0.8-0.8v-17.9c0-0.4,0.4-0.8,0.8-0.8h29.5c0.4,0,0.8,0.4,0.8,0.8v17.9
		C1015-1847.6,1014.6-1847.2,1014.2-1847.2z M985.5-1848.8h27.9v-16.3h-27.9V-1848.8z"/>
	<path class="st0" d="M999.4-1852c-0.2,0-0.4-0.1-0.5-0.2l-14.7-13.2c-0.2-0.2-0.3-0.6-0.2-0.9c0.1-0.3,0.4-0.5,0.7-0.5c0,0,0,0,0,0
		l29.5,0.1c0.3,0,0.6,0.2,0.7,0.5c0.1,0.3,0,0.7-0.2,0.9l-14.8,13.2C999.7-1852,999.6-1852,999.4-1852z M986.8-1865.2l12.6,11.3
		l12.7-11.3L986.8-1865.2z"/>
	<path class="st0" d="M984.7-1847.2c-0.3,0-0.6-0.2-0.7-0.5c-0.1-0.3,0-0.7,0.2-0.9l10-9c0.3-0.3,0.8-0.3,1.1,0l4.2,3.8l4.2-3.8
		c0.3-0.3,0.8-0.3,1.1,0l10,8.9c0.2,0.2,0.3,0.6,0.2,0.9c-0.1,0.3-0.4,0.5-0.7,0.5L984.7-1847.2
		C984.7-1847.2,984.7-1847.2,984.7-1847.2z M994.6-1855.9l-7.9,7.1l25.3,0l-7.9-7l-4.2,3.8c-0.3,0.3-0.8,0.3-1.1,0L994.6-1855.9z"/>
</g>
</svg>
