<?xml version="1.0" encoding="utf-8"?>
<!-- Generator: Adobe Illustrator 22.1.0, SVG Export Plug-In . SVG Version: 6.00 Build 0)  -->
<svg version="1.1" id="Слой_1" xmlns="http://www.w3.org/2000/svg" xmlns:xlink="http://www.w3.org/1999/xlink" x="0px" y="0px"
	 viewBox="0 0 31.1 30" style="enable-background:new 0 0 31.1 30;" xml:space="preserve">
<style type="text/css">
	.st0{fill:#187DC6;}
</style>
<title></title>
<g>
	<path class="st0" d="M15.6,0C9.7,0,4.9,4.8,4.9,10.7c0,5.5,6.1,13.8,9.8,18.2c0.1,0.1,0.2,0.2,0.2,0.3l0.7,0.8l0.7-0.8
		c0.4-0.5,10-11.7,10-18.5C26.2,4.8,21.4,0,15.6,0z M24.4,10.6c0,4.9-6.1,13.1-8.9,16.5c-2.8-3.4-8.9-11.6-8.9-16.5
		c0-4.9,4-8.9,8.9-8.9S24.4,5.7,24.4,10.6z"/>
	<path class="st0" d="M15.6,6.5c-2.3,0-4.2,1.9-4.2,4.2c0,2.3,1.9,4.2,4.2,4.2s4.2-1.9,4.2-4.2C19.7,8.4,17.9,6.5,15.6,6.5z
		 M17.9,10.7c0,1.3-1.1,2.3-2.3,2.3s-2.3-1.1-2.3-2.3s1.1-2.3,2.3-2.3S17.9,9.4,17.9,10.7z"/>
</g>
</svg>
