<?xml version="1.0" encoding="utf-8"?>
<!-- Generator: Adobe Illustrator 22.1.0, SVG Export Plug-In . SVG Version: 6.00 Build 0)  -->
<svg version="1.1" id="Слой_1" xmlns="http://www.w3.org/2000/svg" xmlns:xlink="http://www.w3.org/1999/xlink" x="0px" y="0px"
	 viewBox="0 0 31.1 30" style="enable-background:new 0 0 31.1 30;" xml:space="preserve">
<style type="text/css">
	.st0{fill:#187DC6;}
</style>
<title></title>
<g id="_1">
	<path class="st0" d="M21.6,28c-1,0-2-0.1-3-0.4c-3.4-0.8-6.9-2.9-9.8-5.8s-5-6.4-5.8-9.8C2.1,8.4,2.7,5.4,4.7,3.4l0.6-0.6
		c1.1-1.1,2.8-1.1,3.9,0l3.2,3.2c1.1,1.1,1.1,2.8,0,3.9l-1.9,1.9c0.9,1.6,2.2,3.2,3.6,4.7s3.1,2.7,4.7,3.6l1.9-1.9
		c1.1-1.1,2.8-1.1,3.9,0c0,0,0,0,0,0l3.2,3.2c1.1,1.1,1.1,2.8,0,3.9l-0.6,0.6C25.8,27.3,23.9,28,21.6,28z M7.2,4
		C6.9,4,6.7,4.1,6.6,4.2L6,4.8c-1.5,1.5-1.9,3.9-1.2,6.8c0.7,3,2.6,6.2,5.3,8.9s5.9,4.6,8.9,5.3c2.9,0.7,5.3,0.3,6.8-1.2l0.6-0.6
		c0.3-0.3,0.3-0.8,0-1.1l-3.2-3.2c-0.3-0.3-0.8-0.3-1.1,0l-2.4,2.4c-0.3,0.3-0.8,0.4-1.1,0.2c-2-1-4-2.5-5.8-4.3
		c-1.8-1.8-3.3-3.8-4.3-5.8c-0.2-0.4-0.1-0.8,0.2-1.1l2.4-2.4c0.3-0.3,0.3-0.8,0-1.1L7.7,4.2C7.6,4.1,7.4,4,7.2,4z"/>
	<path class="st0" d="M22.6,16.4c-0.5,0-1-0.4-1-1l0,0c0-3.5-2.9-6.4-6.4-6.4c-0.5,0-1-0.4-1-1c0-0.5,0.4-1,1-1l0,0
		c4.6,0,8.4,3.8,8.4,8.4C23.6,15.9,23.2,16.4,22.6,16.4C22.6,16.4,22.6,16.4,22.6,16.4z"/>
	<path class="st0" d="M26.7,16.4c-0.5,0-1-0.4-1-1l0,0c0-5.8-4.7-10.5-10.5-10.5c-0.5,0-1-0.4-1-1s0.4-1,1-1l0,0
		c6.9,0,12.5,5.6,12.5,12.5C27.7,15.9,27.3,16.4,26.7,16.4L26.7,16.4z"/>
</g>
</svg>
