<?xml version="1.0" encoding="utf-8"?>
<!-- Generator: Adobe Illustrator 22.1.0, SVG Export Plug-In . SVG Version: 6.00 Build 0)  -->
<svg version="1.1" id="Слой_1" xmlns="http://www.w3.org/2000/svg" xmlns:xlink="http://www.w3.org/1999/xlink" x="0px" y="0px"
	 viewBox="0 0 32 32" style="enable-background:new 0 0 32 32;" xml:space="preserve">
<style type="text/css">
	.st0{fill:none;}
	.st1{fill:#018F43;}
</style>
<path class="st0" d="M32,32H0V0h32"/>
<path class="st1" d="M14.8,6.6l10.8,10.8c2.1,2.1,2.1,5.5,0,7.5s-5.5,2.1-7.5,0L6.3,13.2C5,11.9,5,9.8,6.3,8.5s3.4-1.3,4.7,0
	l9.9,9.9c0.5,0.5,0.5,1.4,0,1.9s-1.4,0.5-1.9,0l-9-9l-1.4,1.4l9,9c1.3,1.3,3.4,1.3,4.7,0s1.3-3.4,0-4.7L12.4,7C10.3,5,7,5,4.9,7
	s-2.1,5.5,0,7.5l11.8,11.8c2.9,2.9,7.5,2.9,10.4,0s2.9-7.5,0-10.4L16.2,5.2L14.8,6.6z"/>
</svg>
