<?xml version="1.0" encoding="utf-8"?>
<!-- Generator: Adobe Illustrator 22.1.0, SVG Export Plug-In . SVG Version: 6.00 Build 0)  -->
<svg version="1.1"
	 id="svg8" inkscape:version="0.92.3 (2405546, 2018-03-11)" sodipodi:docname="PDF file icon.svg" xmlns:cc="http://creativecommons.org/ns#" xmlns:dc="http://purl.org/dc/elements/1.1/" xmlns:inkscape="http://www.inkscape.org/namespaces/inkscape" xmlns:rdf="http://www.w3.org/1999/02/22-rdf-syntax-ns#" xmlns:sodipodi="http://sodipodi.sourceforge.net/DTD/sodipodi-0.dtd" xmlns:svg="http://www.w3.org/2000/svg"
	 xmlns="http://www.w3.org/2000/svg" xmlns:xlink="http://www.w3.org/1999/xlink" x="0px" y="0px" viewBox="0 0 48 48"
	 style="enable-background:new 0 0 48 48;" xml:space="preserve">
<style type="text/css">
	.st0{fill:#FF2116;}
	.st1{fill:#F5F5F5;}
	.st2{fill:#2C2C2C;}
</style>
<title  id="title2682">PDF file icon</title>
<sodipodi:namedview  bordercolor="#666666" borderopacity="1.0" fit-margin-bottom="0" fit-margin-left="0" fit-margin-right="0" fit-margin-top="0" id="base" inkscape:current-layer="g899" inkscape:cx="122.12727" inkscape:cy="167.02823" inkscape:document-units="mm" inkscape:object-nodes="false" inkscape:pageopacity="0.0" inkscape:pageshadow="2" inkscape:snap-others="false" inkscape:snap-page="false" inkscape:window-height="705" inkscape:window-maximized="1" inkscape:window-width="1366" inkscape:window-x="-8" inkscape:window-y="-8" inkscape:zoom="0.98994949" pagecolor="#ffffff" showgrid="false">
	</sodipodi:namedview>
<g id="layer1" transform="translate(36.076172,-93.731774)" inkscape:groupmode="layer" inkscape:label="Capa 1">
	<g id="g899" transform="matrix(1.4843054,0,0,1.4843054,17.471885,-90.243502)">
		<g id="g876">
			<path id="path890" inkscape:connector-curvature="0" class="st0" d="M-29.7,123.9c-1.8,0-3.3,1.5-3.3,3.3v25.7
				c0,1.8,1.5,3.3,3.3,3.3h19.6c1.8,0,3.3-1.5,3.3-3.3v-21.1c0,0,0.1-0.6-0.2-1.2c-0.3-0.6-0.7-1-0.7-1c0,0,0,0,0,0l-4.9-4.8
				c0,0,0,0,0,0c0,0-0.4-0.4-1-0.7c-0.7-0.3-1.5-0.3-1.5-0.3l0,0L-29.7,123.9z"/>
			<path id="rect2684" inkscape:connector-curvature="0" class="st1" d="M-29.7,125H-15c0,0,0,0,0,0c0,0,0.6,0,1,0.2
				c0.4,0.2,0.7,0.4,0.7,0.4c0,0,0,0,0,0l4.9,4.8c0,0,0.3,0.3,0.4,0.6c0.1,0.3,0.1,0.7,0.1,0.7c0,0,0,0,0,0v21.1
				c0,1.3-1,2.2-2.2,2.2h-19.6c-1.3,0-2.2-1-2.2-2.2v-25.7C-32,126-31,125-29.7,125L-29.7,125z"/>
			
				<path id="path2697" inkscape:connector-curvature="0" sodipodi:nodetypes="scccscccscccccssscacccsccccccccccccccccccccaccccccccc" class="st0" d="
				M-26.5,143.2c-0.8-0.8,0.1-1.8,2.3-2.9l1.4-0.7l0.5-1.2c0.3-0.7,0.7-1.7,1-2.4l0.4-1.2l-0.3-0.9c-0.4-1.1-0.5-2.7-0.3-3.3
				c0.3-0.8,1.4-0.7,1.8,0.1c0.3,0.7,0.3,1.9-0.1,3.4l-0.3,1.2l0.3,0.5c0.2,0.3,0.6,0.9,1,1.4l0.8,0.9l0.9-0.1c3-0.4,4,0.3,4,1.2
				c0,1.2-2.3,1.3-4.3-0.1c-0.4-0.3-0.7-0.6-0.7-0.6s-1.2,0.2-1.8,0.4c-0.6,0.2-0.9,0.3-1.8,0.6c0,0-0.3,0.5-0.5,0.8
				c-0.8,1.3-1.7,2.3-2.3,2.7C-25.3,143.6-26.1,143.6-26.5,143.2z M-25.3,142.8c0.4-0.3,1.3-1.3,1.9-2.2l0.2-0.4l-1.1,0.6
				c-1.7,0.9-2.5,1.7-2.1,2.1C-26.1,143.1-25.9,143.1-25.3,142.8L-25.3,142.8z M-14.3,139.7c0.4-0.3,0.4-0.9-0.1-1.1
				c-0.4-0.2-0.7-0.2-1.6-0.2c-0.6,0-1.5,0.2-1.7,0.2c0,0,0.5,0.4,0.7,0.5c0.3,0.2,1,0.5,1.6,0.7C-14.9,139.9-14.5,139.9-14.3,139.7
				L-14.3,139.7z M-18.7,137.9c-0.3-0.3-0.7-0.8-0.9-1.2c-0.4-0.5-0.5-0.8-0.5-0.8s-0.3,0.8-0.5,1.3l-0.7,1.6l-0.2,0.4
				c0,0,1-0.3,1.5-0.5c0.6-0.1,1.7-0.4,1.7-0.4L-18.7,137.9z M-20.2,132.1c0.1-0.5,0.1-1.1-0.1-1.3c-0.5-0.5-1.1-0.1-1,1.2
				c0,0.4,0.1,1.1,0.3,1.6l0.3,0.8l0.2-0.6C-20.4,133.4-20.2,132.7-20.2,132.1L-20.2,132.1z"/>
			<g id="g858">
				<path id="path845" inkscape:connector-curvature="0" class="st2" d="M-25.2,146.7h1.2c0.4,0,0.7,0,1,0.1
					c0.2,0.1,0.4,0.2,0.6,0.5c0.2,0.3,0.3,0.6,0.3,0.9c0,0.3-0.1,0.6-0.2,0.8c-0.1,0.2-0.3,0.4-0.5,0.5c-0.2,0.1-0.6,0.2-1.1,0.2
					h-0.4v1.9h-0.8V146.7z M-24.4,147.3v1.7h0.4c0.4,0,0.6-0.1,0.8-0.2c0.1-0.1,0.2-0.4,0.2-0.7c0-0.2,0-0.4-0.1-0.6
					c-0.1-0.1-0.2-0.2-0.3-0.3c-0.1,0-0.3-0.1-0.5-0.1L-24.4,147.3z"/>
				<path id="path847" inkscape:connector-curvature="0" class="st2" d="M-21.5,146.7h1.1c0.5,0,1,0.1,1.3,0.3
					c0.3,0.2,0.6,0.5,0.7,0.9c0.2,0.4,0.3,0.8,0.3,1.3c0,0.5-0.1,0.9-0.2,1.3c-0.1,0.4-0.4,0.7-0.7,0.9c-0.3,0.2-0.7,0.3-1.3,0.3
					h-1.2V146.7z M-20.7,147.4v3.6h0.3c0.5,0,0.8-0.2,1-0.5c0.2-0.3,0.3-0.8,0.3-1.3c0-1.2-0.5-1.8-1.4-1.8L-20.7,147.4z"/>
				<path id="path849" inkscape:connector-curvature="0" class="st2" d="M-17.4,146.7h2.7v0.7h-1.9v1.5h1.5v0.7h-1.5v2.2h-0.8
					L-17.4,146.7z"/>
			</g>
		</g>
	</g>
</g>
</svg>
