<?xml version="1.0" encoding="utf-8"?>
<!-- Generator: Adobe Illustrator 22.1.0, SVG Export Plug-In . SVG Version: 6.00 Build 0)  -->
<svg version="1.1" id="Layer_1" xmlns="http://www.w3.org/2000/svg" xmlns:xlink="http://www.w3.org/1999/xlink" x="0px" y="0px"
	 viewBox="0 0 46 46" style="enable-background:new 0 0 46 46;" xml:space="preserve">
<style type="text/css">
	.st0{fill:#FFFFFF;}
	.st1{fill:#015CAB;}
	.st2{opacity:0.2;fill:#FFFFFF;enable-background:new    ;}
	.st3{opacity:0.1;enable-background:new    ;}
	.st4{fill:url(#SVGID_1_);}
	.st5{opacity:5.000000e-02;fill:url(#SVGID_2_);enable-background:new    ;}
	.st6{fill:url(#SVGID_3_);}
</style>
<g>
	<rect x="23" y="6.7" class="st0" width="22" height="32.6"/>
	<path class="st1" d="M45,40.3H25.9c-0.5,0-1-0.4-1-1c0-0.5,0.4-1,1-1h18.2V7.7H25.9c-0.5,0-1-0.4-1-1s0.4-1,1-1H45c0.5,0,1,0.4,1,1
		v32.6C46,39.8,45.6,40.3,45,40.3z"/>
	<polygon class="st1" points="26.8,0 0,5 0,41 26.8,46 	"/>
	<polygon class="st2" points="0,5 0,5.5 26.8,0.5 26.8,0 	"/>
	<polygon class="st3" points="0,41 26.8,46 26.8,45.5 0,40.5 	"/>
	<rect x="25.9" y="10.5" class="st1" width="15.3" height="1.9"/>
	<rect x="25.9" y="16.3" class="st1" width="15.3" height="1.9"/>
	<rect x="25.9" y="22" class="st1" width="15.3" height="1.9"/>
	<rect x="25.9" y="27.8" class="st1" width="15.3" height="1.9"/>
	<rect x="25.9" y="33.5" class="st1" width="15.3" height="1.9"/>
	
		<linearGradient id="SVGID_1_" gradientUnits="userSpaceOnUse" x1="18.2083" y1="55.625" x2="44.7611" y2="29.0722" gradientTransform="matrix(1 0 0 -1 0 70)">
		<stop  offset="0" style="stop-color:#000000;stop-opacity:0.1"/>
		<stop  offset="1" style="stop-color:#000000;stop-opacity:0"/>
	</linearGradient>
	<path class="st4" d="M45,40.3c0.5,0,1-0.4,1-1V24.9L26.8,5.8v34.5H45z"/>
	<path class="st0" d="M15.2,31.7l2,0.1l4.2-16l-3,0.2l-2.2,8.3c0,0-1.1-4.1-2.2-8l-3.2,0.2l-2.1,7.8l-2-7.5L3.8,17l3.7,14.1l2.3,0.2
		l2.6-9.3C12.5,22,14,27.4,15.2,31.7z"/>
	
		<linearGradient id="SVGID_2_" gradientUnits="userSpaceOnUse" x1="-322.432" y1="-383.8052" x2="-321.9919" y2="-383.8052" gradientTransform="matrix(60.9756 0 0 -60.9756 19660.4863 -23379.7559)">
		<stop  offset="0" style="stop-color:#FFFFFF"/>
		<stop  offset="1" style="stop-color:#000000"/>
	</linearGradient>
	<path class="st5" d="M26.8,0L0,5v36l26.8,5V0z"/>
	
		<linearGradient id="SVGID_3_" gradientUnits="userSpaceOnUse" x1="-2.9966" y1="58.5737" x2="48.0037" y2="34.7919" gradientTransform="matrix(1 0 0 -1 0 70)">
		<stop  offset="0" style="stop-color:#FFFFFF;stop-opacity:0.2"/>
		<stop  offset="1" style="stop-color:#FFFFFF;stop-opacity:0"/>
	</linearGradient>
	<path class="st6" d="M45,5.8H26.8V0L0,5v36l26.8,5v-5.8H45c0.5,0,1-0.4,1-1V6.7C46,6.2,45.6,5.8,45,5.8z"/>
</g>
</svg>
