<?xml version="1.0" encoding="utf-8"?>
<!-- Generator: Adobe Illustrator 22.1.0, SVG Export Plug-In . SVG Version: 6.00 Build 0)  -->
<svg version="1.1" id="Слой_1" xmlns="http://www.w3.org/2000/svg" xmlns:xlink="http://www.w3.org/1999/xlink" x="0px" y="0px"
	 viewBox="0 0 252 261.7" style="enable-background:new 0 0 252 261.7;" xml:space="preserve">
<style type="text/css">
	.st0{fill:#193255;}
	.st1{fill:#1C71B6;}
	.st2{fill:#2A8BCA;}
	.st3{fill:#154390;}
	.st4{fill:#B1B1B2;}
	.st5{fill:#D1D1D1;}
	.st6{fill:#EAEAEA;}
	.st7{fill:#D9DADA;}
	.st8{fill:#056D48;}
	.st9{fill:#009640;}
	.st10{fill:#1A1B19;}
</style>
<polygon class="st0" points="18.7,172.8 15.9,172.8 15.9,156.4 12,156.4 12,172.8 4.8,172.8 4.8,156.4 0.8,156.4 0.8,176.3 
	15.2,176.3 15.4,180.2 18.7,180.2 "/>
<polygon class="st0" points="21.7,176.3 35.1,176.3 35.1,172.8 25.6,172.8 25.6,168.1 32.7,168.1 32.7,164.7 25.6,164.7 25.6,159.9 
	34.5,159.9 34.5,156.4 21.7,156.4 "/>
<polygon class="st0" points="38.5,176.3 42.5,176.3 42.5,168.5 50.7,168.5 50.7,176.3 54.6,176.3 54.6,156.4 50.7,156.4 50.7,165 
	42.5,165 42.5,156.4 38.5,156.4 "/>
<polygon class="st0" points="63,176.3 67,176.3 67,159.9 72.6,159.9 72.6,156.4 57.6,156.4 57.6,159.9 63,159.9 "/>
<path class="st0" d="M79.4,166v-6.1h2.9c2.3,0,3.5,1.2,3.5,3.1c0,1.8-1.2,3.1-3.7,3.1H79.4z M75.5,176.3h3.9v-6.8h3.1
	c4.4,0,7.3-2.1,7.3-6.5c0-3.8-2.1-6.6-6.9-6.6h-7.4V176.3z"/>
<path class="st0" d="M10.2,208.6c3.5,0,6.2-1.6,7.9-3.8l-2.9-2.5c-1.2,1.5-3,2.5-5,2.5c-3.6,0-6-2.7-6-6.4c0-4,2.6-6.5,6-6.5
	c2.1,0,3.7,1,5,2.5l2.9-2.4c-2.1-2.6-5.1-3.8-8-3.8c-6.5,0-10.1,4.6-10.1,10.3C0,205.1,4.6,208.6,10.2,208.6"/>
<polygon class="st0" points="25.2,208.4 29.2,208.4 29.2,192 34.7,192 34.7,188.5 19.7,188.5 19.7,192 25.2,192 "/>
<path class="st0" d="M41.5,198.1V192h2.9c2.3,0,3.5,1.2,3.5,3.1c0,1.8-1.2,3.1-3.7,3.1H41.5z M37.6,208.4h3.9v-6.8h3.1
	c4.4,0,7.3-2.1,7.3-6.5c0-3.8-2.1-6.6-6.9-6.6h-7.4V208.4z"/>
<path class="st0" d="M58.4,201.1l2.7-7.8h0.1l2.7,7.8H58.4z M51.8,208.4h4.1l1.3-4h7.6l1.4,4h4.1l-7.4-20h-3.8L51.8,208.4z"/>
<polygon class="st0" points="75,208.4 79,208.4 79,192 84.5,192 84.5,188.5 69.6,188.5 69.6,192 75,192 "/>
<polygon class="st0" points="87.5,208.4 100.8,208.4 100.8,204.9 91.4,204.9 91.4,200.3 98.5,200.3 98.5,196.8 91.4,196.8 91.4,192 
	100.2,192 100.2,188.5 87.5,188.5 "/>
<polygon class="st0" points="104.3,208.4 108.3,208.4 108.3,192 117.1,192 117.1,188.5 104.3,188.5 "/>
<polygon class="st0" points="120.2,208.4 123.9,208.4 132.6,195.2 132.7,195.2 132.7,208.4 136.6,208.4 136.6,188.5 133,188.5 
	124.2,202 124.2,201.9 124.2,188.5 120.2,188.5 "/>
<path class="st0" d="M151.1,188.5v9c-1,0.5-2.4,0.8-3.7,0.8c-2.1,0-3.1-0.6-3.1-3.5v-6.3h-4v6.8c0,4.2,1.7,6.5,5.7,6.5
	c1.9,0,3.8-0.5,5-1.1v7.6h4v-20H151.1z"/>
<polygon class="st0" points="159.4,208.4 172.8,208.4 172.8,204.9 163.3,204.9 163.3,200.3 170.4,200.3 170.4,196.8 163.3,196.8 
	163.3,192 172.2,192 172.2,188.5 159.4,188.5 "/>
<path class="st0" d="M184.9,208.6c3.5,0,6.2-1.6,7.9-3.8l-2.9-2.5c-1.2,1.5-3,2.5-5,2.5c-3.6,0-6-2.7-6-6.4c0-4,2.6-6.5,6-6.5
	c2.1,0,3.7,1,5,2.5l2.9-2.4c-2.1-2.6-5.1-3.8-8-3.8c-6.5,0-10.1,4.6-10.1,10.3C174.7,205.1,179.4,208.6,184.9,208.6"/>
<polygon class="st0" points="195.8,208.4 199.8,208.4 199.8,202.7 201.7,200.4 207.1,208.4 212,208.4 204.4,197.3 211.7,188.5 
	206.7,188.5 199.9,197.2 199.8,197.2 199.8,188.5 195.8,188.5 "/>
<polygon class="st0" points="214.5,208.4 218.2,208.4 226.9,195.2 226.9,195.2 226.9,208.4 230.9,208.4 230.9,188.5 227.3,188.5 
	218.5,202 218.4,201.9 218.4,188.5 214.5,188.5 "/>
<polygon class="st0" points="233.8,208.4 238.3,208.4 242.8,201.5 242.9,201.5 247.4,208.4 252,208.4 245.5,198.4 251.8,188.5 
	247.3,188.5 242.9,195.4 242.9,195.4 238.5,188.5 233.9,188.5 240.2,198.4 "/>
<path class="st0" d="M4.7,230.2v-6.1h2.9c2.3,0,3.5,1.2,3.5,3.1c0,1.8-1.2,3.1-3.7,3.1H4.7z M0.8,240.6h3.9v-6.8h3.1
	c4.4,0,7.3-2.1,7.3-6.5c0-3.8-2.1-6.6-6.9-6.6H0.8V240.6z"/>
<path class="st0" d="M21.6,233.2l2.7-7.8h0.1l2.7,7.8H21.6z M14.9,240.6h4.1l1.3-4h7.6l1.4,4h4.1l-7.4-19.9h-3.8L14.9,240.6z"/>
<path class="st0" d="M42.3,240.8c5,0,7.8-2.5,7.8-6.1c0-2.6-1.5-4.2-4-4.8v-0.1c2.1-0.8,3-2.7,3-4.6c0-3-2.4-4.9-6.6-4.9
	c-2.7,0-5.5,0.9-7,2.2l2.1,3c1.4-1.1,2.9-1.6,4.6-1.6c2,0,3,0.8,3,2.2c0,1.5-1.2,2.5-3.3,2.5h-2.6v3.3h3c2.6,0,3.8,1,3.8,2.6
	c0,1.7-1.3,2.6-3.6,2.6c-1.9,0-3.8-0.6-5.2-2.5l-2.5,3C36.6,239.9,39.3,240.8,42.3,240.8"/>
<path class="st0" d="M57.2,230.2v-6.1h2.9c2.3,0,3.5,1.2,3.5,3.1c0,1.8-1.2,3.1-3.7,3.1H57.2z M53.3,240.6h3.9v-6.8h3.1
	c4.4,0,7.3-2.1,7.3-6.5c0-3.8-2.1-6.6-6.9-6.6h-7.4V240.6z"/>
<path class="st0" d="M74.1,233.2l2.7-7.8h0.1l2.7,7.8H74.1z M67.5,240.6h4.1l1.3-4h7.6l1.4,4h4.1l-7.4-19.9h-3.8L67.5,240.6z"/>
<path class="st0" d="M92.6,237.1v-5.6h3.3c2,0,3.2,0.8,3.2,2.8c0,1.9-1,2.8-3.2,2.8H92.6z M88.7,240.6h7.1c5.5,0,7.4-2.4,7.4-6.5
	c0-3.5-1.9-5.9-7.2-5.9h-3.4v-4h9v-3.5H88.7V240.6z"/>
<path class="st0" d="M115.5,237.1c-3.6,0-6.1-2.9-6.1-6.5c0-3.6,2.5-6.5,6.1-6.5c3.4,0,6,2.8,6,6.5
	C121.5,234.3,118.9,237.1,115.5,237.1 M115.5,240.8c5.8,0,10.1-4.2,10.1-10.2c0-6.1-4.3-10.2-10.1-10.2c-6,0-10.2,4.3-10.2,10.2
	C105.3,236.5,109.5,240.8,115.5,240.8z"/>
<polygon class="st0" points="132,240.6 136,240.6 136,224.1 141.5,224.1 141.5,220.6 126.5,220.6 126.5,224.1 132,224.1 "/>
<path class="st0" d="M152.5,237.1c-3.6,0-6.1-2.9-6.1-6.5c0-3.6,2.5-6.5,6.1-6.5c3.4,0,6,2.8,6,6.5
	C158.5,234.3,155.9,237.1,152.5,237.1 M152.5,240.8c5.8,0,10.1-4.2,10.1-10.2c0-6.1-4.3-10.2-10.1-10.2c-6,0-10.2,4.3-10.2,10.2
	C142.3,236.5,146.5,240.8,152.5,240.8z"/>
<polygon class="st0" points="166.2,240.6 170.1,240.6 170.1,234.9 172.1,232.5 177.4,240.6 182.3,240.6 174.7,229.4 182.1,220.6 
	177,220.6 170.2,229.3 170.1,229.3 170.1,220.6 166.2,220.6 "/>
<path class="st1" d="M33.2,84.7c6.6,6.7,15.8,10.8,25.9,10.8c4,0,7.8-0.6,11.4-1.8L59.1,79.8c0,0,0,0,0,0c-5.8,0-11-2.4-14.8-6.2
	L33.2,84.7z"/>
<path class="st2" d="M94.9,51.8l-17.4-2.7c1.6,2.9,2.4,6.3,2.4,9.8c0,11.5-9.3,20.9-20.9,20.9l11.3,13.9
	c14.6-4.8,25.2-18.5,25.2-34.8C95.6,56.5,95.4,54.1,94.9,51.8"/>
<path class="st3" d="M77.5,49.1l17.4,2.7c-1.4-7.3-5-13.7-10.1-18.8L73.8,44.1C75.3,45.6,76.5,47.3,77.5,49.1"/>
<path class="st4" d="M59.1,117.9v-14.3c24.6,0,44.6-20,44.6-44.6c0-24.6-20-44.6-44.6-44.6V0C91.6,0,118,26.4,118,58.9
	C118,91.5,91.6,117.9,59.1,117.9"/>
<path class="st5" d="M59.1,117.9v-14.3c5.9,0,11.6-1.2,16.7-3.2l9.4,11.5C77.3,115.7,68.5,117.9,59.1,117.9"/>
<path class="st6" d="M117.9,55.3L103.3,53c0.3,1.9,0.4,3.9,0.4,5.9c0,18.7-11.5,34.7-27.9,41.4l9.4,11.5
	c19.4-9.6,32.8-29.7,32.8-52.8C118,57.7,118,56.5,117.9,55.3"/>
<path class="st7" d="M103.3,53l14.6,2.2c-0.9-14.6-7.1-27.7-16.6-37.5l-15.8,5.1C95,29.9,101.7,40.7,103.3,53"/>
<path class="st8" d="M0,113.3c14.7,16,35.7,26,59.1,26c14.3,0,27.9-3.9,39.8-10.8l-9.7-11.9c-9.1,4.8-19.3,7.5-30.1,7.5
	c-19.2,0-36.5-8.3-48.4-21.6C7,106.2,3.1,110.2,0,113.3 M27.2,139.2h-27v-17.6C7.8,129.2,17,135.2,27.2,139.2z"/>
<path class="st9" d="M89.2,116.6l9.7,11.9c20.3-11.7,35.3-31.9,39-55.1h-15.5C118.6,92,105.9,107.8,89.2,116.6"/>
<path class="st10" d="M1,257.4V254h1.8c1.1,0,1.8,0.6,1.8,1.7c0,1-0.6,1.7-2,1.7H1z M0,261.6h1v-3.3h1.8c1.8,0,3-0.8,3-2.6
	c0-1.5-0.8-2.6-2.8-2.6H0V261.6z"/>
<polygon class="st10" points="7.4,261.6 12.8,261.6 12.8,260.7 8.4,260.7 8.4,257.8 11.8,257.8 11.8,256.9 8.4,256.9 8.4,254 
	12.6,254 12.6,253.1 7.4,253.1 "/>
<path class="st10" d="M18,261.7c1.5,0,2.6-0.7,3.3-1.6l-0.8-0.7c-0.6,0.8-1.4,1.3-2.5,1.3c-1.8,0-3.2-1.3-3.2-3.3
	c0-2,1.2-3.4,3.1-3.4c1,0,1.8,0.4,2.5,1.3l0.8-0.6c-0.9-1.1-2.1-1.6-3.3-1.6c-2.7,0-4.2,2-4.2,4.4C13.8,260.2,15.7,261.7,18,261.7"
	/>
<polygon class="st10" points="22.9,261.6 23.9,261.6 23.9,254 28.1,254 28.1,261.6 29.1,261.6 29.1,253.1 22.9,253.1 "/>
<path class="st10" d="M36.5,253.1l-2.2,5h0l-2.7-5h-1.2l3.4,6.2c-0.3,0.9-0.6,1.4-1.3,1.4c-0.3,0-0.7-0.1-1-0.3l-0.4,0.9
	c0.3,0.3,1,0.4,1.4,0.4c1.3,0,1.7-1,2.3-2.3l2.8-6.4H36.5z"/>
<path class="st10" d="M39.9,260.7v-3.3h1.8c1.3,0,1.9,0.6,1.9,1.6c0,1-0.6,1.6-1.9,1.6H39.9z M38.8,261.6h2.9c2,0,3-0.9,3-2.6
	c0-1.5-0.9-2.5-3-2.5h-1.8V254H44v-0.9h-5.2V261.6z"/>
<path class="st10" d="M47.7,253.1c0,1.6-0.1,3.4-0.3,4.6c-0.2,2-0.6,3-1.5,3c-0.1,0-0.3,0-0.4,0l-0.1,0.9c0.2,0,0.5,0.1,0.7,0.1
	c1.4,0,2-1.2,2.3-3.6c0.1-1.1,0.2-2.6,0.3-4h3v7.6h1v-8.5H47.7z"/>
<polygon class="st10" points="54.8,261.6 55.8,261.6 60.5,254.9 60.5,254.9 60.5,261.6 61.5,261.6 61.5,253.1 60.6,253.1 
	55.9,259.9 55.9,259.9 55.9,253.1 54.8,253.1 "/>
<polygon class="st10" points="63.7,261.6 64.7,261.6 64.7,259.2 65.9,257.8 68.7,261.6 70,261.6 66.6,257 69.9,253.1 68.6,253.1 
	64.7,257.8 64.7,257.8 64.7,253.1 63.7,253.1 "/>
<polygon class="st10" points="71.4,261.6 72.4,261.6 77,254.9 77.1,254.9 77.1,261.6 78.1,261.6 78.1,253.1 77.2,253.1 72.5,259.9 
	72.5,259.9 72.5,253.1 71.4,253.1 "/>
<path class="st10" d="M84.5,260.7v-3.3h1.8c1.3,0,1.9,0.6,1.9,1.6c0,1-0.6,1.6-1.9,1.6H84.5z M83.5,261.6h2.9c2,0,3-0.9,3-2.6
	c0-1.5-0.9-2.5-3-2.5h-1.8V254h4.1v-0.9h-5.2V261.6z"/>
<path class="st10" d="M92.3,258.6l1.5-4.3h0l1.6,4.3H92.3z M90.1,261.6h1.1l0.8-2.1h3.8l0.8,2.1h1.1l-3.2-8.5h-1L90.1,261.6z"/>
<polygon class="st10" points="107.5,253.1 107.5,260.7 104.3,260.7 104.3,253.1 103.2,253.1 103.2,260.7 100,260.7 100,253.1 
	99,253.1 99,261.6 108.5,261.6 108.5,253.1 "/>
<polygon class="st10" points="110.6,261.6 111.7,261.6 111.7,259.2 112.9,257.8 115.7,261.6 117,261.6 113.6,257 116.9,253.1 
	115.6,253.1 111.7,257.8 111.7,257.8 111.7,253.1 110.6,253.1 "/>
<path class="st10" d="M121.7,260.7c-1.8,0-3.2-1.4-3.2-3.4c0-1.9,1.3-3.4,3.2-3.4c1.8,0,3.2,1.4,3.2,3.4
	C124.9,259.3,123.5,260.7,121.7,260.7 M121.7,261.7c2.4,0,4.3-1.7,4.3-4.3c0-2.6-1.9-4.3-4.3-4.3c-2.5,0-4.3,1.8-4.3,4.3
	C117.4,259.9,119.2,261.7,121.7,261.7z"/>
<path class="st10" d="M128.8,257.4V254h1.8c1.1,0,1.8,0.6,1.8,1.7c0,1-0.6,1.7-2,1.7H128.8z M127.7,261.6h1v-3.3h1.8
	c1.8,0,3-0.8,3-2.6c0-1.5-0.8-2.6-2.8-2.6h-3V261.6z"/>
<polygon class="st10" points="136.9,261.6 138,261.6 138,254 140.6,254 140.6,253.1 134.4,253.1 134.4,254 136.9,254 "/>
<path class="st10" d="M145.3,260.7c-1.8,0-3.2-1.4-3.2-3.4c0-1.9,1.3-3.4,3.2-3.4c1.8,0,3.2,1.4,3.2,3.4
	C148.5,259.3,147.1,260.7,145.3,260.7 M145.3,261.7c2.4,0,4.3-1.7,4.3-4.3c0-2.6-1.9-4.3-4.3-4.3c-2.5,0-4.3,1.8-4.3,4.3
	C141,259.9,142.8,261.7,145.3,261.7z"/>
<path class="st10" d="M155.2,261.7c1.5,0,2.6-0.7,3.3-1.6l-0.8-0.7c-0.6,0.8-1.4,1.3-2.5,1.3c-1.8,0-3.2-1.3-3.2-3.3
	c0-2,1.2-3.4,3.1-3.4c1,0,1.8,0.4,2.5,1.3l0.8-0.6c-0.9-1.1-2.1-1.6-3.3-1.6c-2.7,0-4.2,2-4.2,4.4
	C150.9,260.2,152.9,261.7,155.2,261.7"/>
<polygon class="st10" points="161.8,261.6 162.9,261.6 162.9,254 165.5,254 165.5,253.1 159.3,253.1 159.3,254 161.8,254 "/>
<path class="st10" d="M167.5,258.6l1.5-4.3h0l1.6,4.3H167.5z M165.3,261.6h1.1l0.8-2.1h3.8l0.8,2.1h1.1l-3.2-8.5h-1L165.3,261.6z"/>
<polygon class="st10" points="174.1,261.6 175.2,261.6 175.2,258 179.6,258 179.6,261.6 180.7,261.6 180.7,253.1 179.6,253.1 
	179.6,257.1 175.2,257.1 175.2,253.1 174.1,253.1 "/>
</svg>
