<?xml version="1.0" encoding="utf-8"?>
<!-- Generator: Adobe Illustrator 22.1.0, SVG Export Plug-In . SVG Version: 6.00 Build 0)  -->
<svg version="1.1" id="Layer_1" xmlns="http://www.w3.org/2000/svg" xmlns:xlink="http://www.w3.org/1999/xlink" x="0px" y="0px"
	 viewBox="0 0 28 25.5" style="enable-background:new 0 0 28 25.5;" xml:space="preserve">
<style type="text/css">
	.st0{fill:#FFFFFF;}
</style>
<g>
	<g id="Icon-Paperclip" transform="translate(127.000000, 380.000000)">
		<path id="Fill-60" class="st0" d="M-121.8-354.5c-1.4,0-2.7-0.5-3.7-1.5c-1-1-1.5-2.3-1.5-3.7s0.5-2.7,1.5-3.7l14.7-14.7
			c2.7-2.7,7.1-2.7,9.7,0c1.3,1.3,2,3,2,4.9s-0.7,3.5-2,4.9l-11,11l-1.2-1.2l11-11c2-2,2-5.4,0-7.4s-5.4-2-7.4,0l-14.7,14.7
			c-0.7,0.6-1,1.6-1,2.5c0,0.9,0.3,1.9,1,2.5c1.4,1.4,3.6,1.4,5,0l11-11c0.7-0.7,0.7-1.9,0-2.6c-0.7-0.7-1.9-0.7-2.6,0l-7.4,7.4
			l-1.2-1.2l7.4-7.4c1.3-1.3,3.5-1.3,4.8,0c1.3,1.3,1.3,3.5,0,4.8l-11,11C-119.2-355-120.4-354.5-121.8-354.5"/>
	</g>
</g>
</svg>
