<?xml version="1.0" encoding="utf-8"?>
<!-- Generator: Adobe Illustrator 22.1.0, SVG Export Plug-In . SVG Version: 6.00 Build 0)  -->
<svg version="1.1" id="Слой_1" xmlns="http://www.w3.org/2000/svg" xmlns:xlink="http://www.w3.org/1999/xlink" x="0px" y="0px"
	 viewBox="0 0 48 48" style="enable-background:new 0 0 48 48;" xml:space="preserve">
<style type="text/css">
	.st0{fill:#163759;}
</style>
<title></title>
<path class="st0" d="M24,48c-1,0-2-0.4-2.7-1.1l0,0L1.1,26.7c-1.5-1.5-1.5-3.9,0-5.4l0,0L21.3,1.1c1.5-1.5,3.9-1.5,5.4,0l20.2,20.2
	c1.5,1.5,1.5,3.9,0,5.4l0,0L26.7,46.9C26,47.6,25,48,24,48z M22.4,45.8c0.9,0.9,2.4,0.9,3.3,0l0,0l20.2-20.2c0.9-0.9,0.9-2.4,0-3.3
	l0,0L25.6,2.2c-0.9-0.9-2.4-0.9-3.3,0l0,0L2.2,22.4c-0.9,0.9-0.9,2.4,0,3.3l0,0L22.4,45.8z"/>
<path class="st0" d="M24,30.7c-1.7,0-3-1.3-3.1-3l-0.6-13.3c-0.1-1.7,1.3-3.2,3-3.2h0.1h1.1c1.7,0,3.1,1.4,3.1,3.1v0.1L27,27.7
	C27,29.4,25.7,30.8,24,30.7z M23.4,12.7c-0.9,0-1.6,0.7-1.6,1.6c0,0,0,0,0,0.1l0.6,13.3c0,0.9,0.7,1.6,1.6,1.6s1.6-0.7,1.6-1.6
	l0.6-13.3c0-0.9-0.6-1.6-1.5-1.7c0,0,0,0-0.1,0C24.6,12.7,23.4,12.7,23.4,12.7z"/>
<path class="st0" d="M24,38.2c-1.7,0-3-1.3-3-3s1.3-3,3-3s3,1.3,3,3S25.7,38.2,24,38.2z M24,33.7c-0.8,0-1.5,0.7-1.5,1.5
	s0.7,1.5,1.5,1.5s1.5-0.7,1.5-1.5S24.8,33.7,24,33.7z"/>
</svg>
