<?xml version="1.0" encoding="utf-8"?>
<!-- Generator: Adobe Illustrator 22.1.0, SVG Export Plug-In . SVG Version: 6.00 Build 0)  -->
<svg version="1.1" id="Layer_1" xmlns="http://www.w3.org/2000/svg" xmlns:xlink="http://www.w3.org/1999/xlink" x="0px" y="0px"
	 viewBox="0 0 83 83" style="enable-background:new 0 0 83 83;" xml:space="preserve">
<style type="text/css">
	.st0{fill:#163759;}
</style>
<g>
	<polygon class="st0" points="8,15.6 21,15.6 21.9,15.6 21.9,16.4 21.9,19 47.8,19 47.8,16.4 47.8,15.6 48.7,15.6 61.6,15.6 
		62.5,15.6 62.5,16.4 62.5,49.5 60.8,52.5 60.8,17.3 49.5,17.3 49.5,19.9 49.5,20.8 48.7,20.8 21,20.8 20.1,20.8 20.1,19.9 
		20.1,17.3 8.9,17.3 8.9,81.3 60.8,81.3 60.8,61.1 62.5,58.1 62.5,82.1 62.5,83 61.6,83 8,83 7.2,83 7.2,82.1 7.2,16.4 7.2,15.6 	
		"/>
	<rect x="17.5" y="30.3" class="st0" width="34.6" height="1.7"/>
	<rect x="17.5" y="39.8" class="st0" width="34.6" height="1.7"/>
	<rect x="17.5" y="49.3" class="st0" width="34.6" height="1.7"/>
	<rect x="17.5" y="58.8" class="st0" width="34.6" height="1.7"/>
	<rect x="17.5" y="68.3" class="st0" width="12.9" height="1.7"/>
	<polygon class="st0" points="42.2,65.8 51.5,71.2 74.3,31.6 75.8,32.4 52.5,72.8 52.1,73.5 51.4,73.1 41.3,67.3 	"/>
	<path class="st0" d="M34.9,1.7c-1.7,0.1-3.3,0.8-4.4,2s-1.8,2.7-1.8,4.5c0,0.5,0,0.9,0.1,1.4s0.2,0.9,0.4,1.3l0.6,1.2h-1.3h-5.8V19
		h25.1v-6.9H42h-1.3l0.6-1.2c0.2-0.4,0.3-0.8,0.4-1.3c0.1-0.4,0.1-0.9,0.1-1.4c0-1.7-0.7-3.3-1.8-4.5s-2.7-1.9-4.4-2l0,0
		c-0.1,0-0.2,0-0.3,0l0,0C35.1,1.7,35,1.7,34.9,1.7L34.9,1.7z M29.3,2.6c1.4-1.5,3.4-2.4,5.5-2.5c0.2,0,0.3,0,0.4,0l0,0
		c0.2,0,0.3,0,0.4,0l0,0c2.2,0.1,4.1,1.1,5.5,2.5C42.6,4,43.5,6,43.5,8.2c0,0.6-0.1,1.2-0.2,1.7c0,0.1-0.1,0.3-0.1,0.4h5.5h0.9v0.9
		v8.6v0.9h-0.9H21.9H21v-0.9v-8.6v-0.9h0.9h5.5c0-0.1-0.1-0.3-0.1-0.4C27.1,9.4,27,8.8,27,8.2C27,6,27.9,4,29.3,2.6z"/>
	<polygon class="st0" points="35.3,5.5 35.7,6.8 37,6.8 35.9,7.6 36.3,8.8 35.3,8 34.2,8.8 34.6,7.6 33.5,6.8 34.9,6.8 	"/>
</g>
</svg>
