<?xml version="1.0" encoding="utf-8"?>
<!-- Generator: Adobe Illustrator 22.1.0, SVG Export Plug-In . SVG Version: 6.00 Build 0)  -->
<svg version="1.1" id="Слой_1" xmlns="http://www.w3.org/2000/svg" xmlns:xlink="http://www.w3.org/1999/xlink" x="0px" y="0px"
	 viewBox="0 0 45 45" style="enable-background:new 0 0 45 45;" xml:space="preserve">
<style type="text/css">
	.st0{fill:#121313;}
</style>
<path id="Arrow_Forward" class="st0" d="M45,22.4c0-0.4-0.2-0.7-0.4-1L30.7,7.4c-0.5-0.6-1.4-0.6-2,0c-0.5,0.6-0.5,1.5,0,2L40.2,21
	H1.4C0.6,21,0,21.6,0,22.4c0,0.8,0.6,1.4,1.4,1.4h38.8L28.7,35.5c-0.5,0.6-0.5,1.5,0,2c0.5,0.6,1.4,0.6,2,0l13.9-14.1
	C44.9,23.2,45,22.8,45,22.4z"/>
</svg>
