<?xml version="1.0" encoding="utf-8"?>
<!-- Generator: Adobe Illustrator 22.1.0, SVG Export Plug-In . SVG Version: 6.00 Build 0)  -->
<svg version="1.1" id="Слой_1" xmlns="http://www.w3.org/2000/svg" xmlns:xlink="http://www.w3.org/1999/xlink" x="0px" y="0px"
	 viewBox="0 0 281.7 386.1" style="enable-background:new 0 0 281.7 386.1;" xml:space="preserve">
<style type="text/css">
	.st0{fill:#FFFFFF;}
</style>
<path class="st0" d="M221.9,376.3L221.9,376.3L221.9,376.3z M37.9,5.7l37.9,48.8H0L37.9,5.7z M69.6,51.5l-31.7-41l-31.7,41H69.6z
	 M281.7,0v74.7v3v75.2v2.7V227v2.9v77.7v0.3v78.2h-62.9l61.8-79.6l-60.5-78.1l1-1.3l57.6-74.2l-116-0.4l0,0l-58.5-75.6L44.7,0H161
	h1.8h1.9h1.9H279H281.7L281.7,0z M278.7,313.9l-53.7,69.2h53.7V313.9z M185,121.3l33.8-43.6h0l0,0l-110.5-0.5l55.5,71.6L185,121.3z
	 M108.7,74.7h110.1h0l-55-71L108.7,74.7z M167.1,3l54.7,70.8L276.7,3H167.1z M50.8,3l54.8,70.8l40.7-52.6L160.5,3H50.8z
	 M277.1,149.8l-55.2-71.2l-55.1,71.2H277.1z M278.7,230h-53.5l53.5,69.1V230z M278.7,157.7L224.9,227h53.7V157.7z M278.7,77.7h-53.7
	l53.7,69.2V77.7z M278.7,74.7V5.4l-53.7,69.3H278.7z M117.3,248.6h60.8l-30.4,39.3L117.3,248.6z M172,251.6h-48.6l24.3,31.4
	L172,251.6z M228.6,190.7L185.9,246l-42.8-55.3H228.6z M185.9,241l36.6-47.3h-73.3L185.9,241z"/>
</svg>
