<?xml version="1.0" encoding="utf-8"?>
<!-- Generator: Adobe Illustrator 22.1.0, SVG Export Plug-In . SVG Version: 6.00 Build 0)  -->
<svg version="1.1" id="Слой_1" xmlns="http://www.w3.org/2000/svg" xmlns:xlink="http://www.w3.org/1999/xlink" x="0px" y="0px"
	 viewBox="0 0 195 105.1" style="enable-background:new 0 0 195 105.1;" xml:space="preserve">
<style type="text/css">
	.st0{fill:#FFFFFF;}
	.st1{fill:url(#SVGID_1_);}
	.st2{fill:url(#SVGID_2_);}
	.st3{fill:url(#SVGID_3_);}
	.st4{fill:url(#SVGID_4_);}
	.st5{fill:url(#SVGID_5_);}
	.st6{fill:url(#SVGID_6_);}
	.st7{fill:url(#SVGID_7_);}
	.st8{fill:url(#SVGID_8_);}
	.st9{fill:url(#SVGID_9_);}
</style>
<polygon class="st0" points="90.1,63.1 88.7,63.1 88.7,54.9 86.8,54.9 86.8,63.1 83.2,63.1 83.2,54.9 81.2,54.9 81.2,64.9 
	88.4,64.9 88.5,66.8 90.1,66.8 "/>
<polygon class="st0" points="91.7,64.9 98.3,64.9 98.3,63.1 93.6,63.1 93.6,60.8 97.1,60.8 97.1,59.1 93.6,59.1 93.6,56.7 98,56.7 
	98,54.9 91.7,54.9 "/>
<polygon class="st0" points="100,64.9 102,64.9 102,61 106.1,61 106.1,64.9 108.1,64.9 108.1,54.9 106.1,54.9 106.1,59.2 102,59.2 
	102,54.9 100,54.9 "/>
<polygon class="st0" points="112.3,64.9 114.3,64.9 114.3,56.7 117,56.7 117,54.9 109.5,54.9 109.5,56.7 112.3,56.7 "/>
<path class="st0" d="M118.5,64.9h1.9v-3.4h1.5c2.2,0,3.7-1,3.7-3.3c0-1.9-1-3.3-3.5-3.3h-3.7L118.5,64.9L118.5,64.9z M120.4,59.7
	v-3.1h1.4c1.1,0,1.7,0.6,1.7,1.5c0,0.9-0.6,1.5-1.8,1.5L120.4,59.7L120.4,59.7z"/>
<path class="st0" d="M5.1,79.7c1.8,0,3.1-0.8,4-1.9l-1.4-1.3c-0.6,0.7-1.5,1.3-2.5,1.3c-1.8,0-3-1.3-3-3.2c0-2,1.3-3.3,3-3.3
	c1,0,1.9,0.5,2.5,1.3L9,71.4c-1.1-1.3-2.5-1.9-4-1.9c-3.3,0-5.1,2.3-5.1,5.2C0,77.9,2.3,79.7,5.1,79.7z"/>
<polygon class="st0" points="12.6,79.6 14.6,79.6 14.6,71.4 17.3,71.4 17.3,69.7 9.9,69.7 9.9,71.4 12.6,71.4 "/>
<path class="st0" d="M18.8,79.6h1.9v-3.4h1.5c2.2,0,3.7-1,3.7-3.3c0-1.9-1-3.3-3.5-3.3h-3.7V79.6z M20.7,74.5v-3.1h1.4
	c1.1,0,1.7,0.6,1.7,1.5s-0.6,1.5-1.8,1.5L20.7,74.5L20.7,74.5z"/>
<path class="st0" d="M25.8,79.6h2.1l0.7-2h3.8l0.7,2h2.1l-3.7-10h-1.9L25.8,79.6L25.8,79.6z M29.1,75.9l1.3-3.9h0l1.3,3.9H29.1z"/>
<polygon class="st0" points="37.4,79.6 39.4,79.6 39.4,71.4 42.2,71.4 42.2,69.7 34.7,69.7 34.7,71.4 37.4,71.4 "/>
<polygon class="st0" points="43.7,79.6 50.3,79.6 50.3,77.9 45.6,77.9 45.6,75.5 49.1,75.5 49.1,73.8 45.6,73.8 45.6,71.4 50,71.4 
	50,69.7 43.7,69.7 "/>
<polygon class="st0" points="52,79.6 54.1,79.6 54.1,71.4 58.5,71.4 58.5,69.7 52,69.7 "/>
<polygon class="st0" points="60,79.6 61.8,79.6 66.2,73 66.2,73 66.2,79.6 68.2,79.6 68.2,69.7 66.4,69.7 62,76.4 62,76.4 62,69.7 
	60,69.7 "/>
<path class="st0" d="M75.4,69.7v4.5c-0.5,0.3-1.2,0.4-1.8,0.4c-1,0-1.5-0.3-1.5-1.7v-3.1h-2V73c0,2.1,0.9,3.3,2.9,3.3
	c0.9,0,1.9-0.2,2.5-0.5v3.8h2v-10L75.4,69.7L75.4,69.7z"/>
<polygon class="st0" points="79.6,79.6 86.2,79.6 86.2,77.9 81.5,77.9 81.5,75.5 85,75.5 85,73.8 81.5,73.8 81.5,71.4 85.9,71.4 
	85.9,69.7 79.6,69.7 "/>
<path class="st0" d="M92.3,79.7c1.8,0,3.1-0.8,4-1.9l-1.4-1.3c-0.6,0.7-1.5,1.3-2.5,1.3c-1.8,0-3-1.3-3-3.2c0-2,1.3-3.3,3-3.3
	c1,0,1.9,0.5,2.5,1.3l1.5-1.2c-1.1-1.3-2.5-1.9-4-1.9c-3.2,0-5.1,2.3-5.1,5.1C87.2,77.9,89.5,79.7,92.3,79.7L92.3,79.7z"/>
<polygon class="st0" points="97.7,79.6 99.7,79.6 99.7,76.8 100.7,75.6 103.3,79.6 105.8,79.6 102,74 105.7,69.7 103.2,69.7 
	99.8,74 99.7,74 99.7,69.7 97.7,69.7 "/>
<polygon class="st0" points="107,79.6 108.9,79.6 113.2,73 113.3,73 113.3,79.6 115.2,79.6 115.2,69.7 113.4,69.7 109,76.4 
	109,76.4 109,69.7 107,69.7 "/>
<polygon class="st0" points="116.7,79.6 118.9,79.6 121.2,76.1 121.2,76.1 123.5,79.6 125.8,79.6 122.5,74.6 125.7,69.7 123.4,69.7 
	121.3,73.1 121.2,73.1 119.1,69.7 116.7,69.7 119.9,74.6 "/>
<path class="st0" d="M35.4,94.4h1.9v-3.4h1.5c2.2,0,3.7-1,3.7-3.3c0-1.9-1-3.3-3.5-3.3h-3.7L35.4,94.4L35.4,94.4z M37.3,89.2v-3.1
	h1.4c1.1,0,1.7,0.6,1.7,1.5c0,0.9-0.6,1.5-1.8,1.5L37.3,89.2L37.3,89.2z"/>
<path class="st0" d="M42.4,94.4h2.1l0.7-2H49l0.7,2h2.1l-3.7-10h-1.9L42.4,94.4L42.4,94.4z M45.7,90.7l1.3-3.9h0l1.3,3.9H45.7
	L45.7,90.7z"/>
<path class="st0" d="M56.1,94.5c2.5,0,3.9-1.2,3.9-3c0-1.3-0.7-2.1-2-2.4v0c1-0.4,1.5-1.4,1.5-2.3c0-1.5-1.2-2.5-3.3-2.5
	c-1.3,0-2.7,0.4-3.5,1.1l1,1.5c0.7-0.6,1.5-0.8,2.3-0.8c1,0,1.5,0.4,1.5,1.1c0,0.8-0.6,1.2-1.7,1.2h-1.3v1.7H56
	c1.3,0,1.9,0.5,1.9,1.3c0,0.8-0.7,1.3-1.8,1.3c-0.9,0-1.9-0.3-2.6-1.2l-1.2,1.5C53.2,94,54.6,94.5,56.1,94.5L56.1,94.5z"/>
<path class="st0" d="M61.6,94.4h1.9v-3.4h1.5c2.2,0,3.7-1,3.7-3.3c0-1.9-1-3.3-3.5-3.3h-3.7L61.6,94.4L61.6,94.4z M63.5,89.2v-3.1
	H65c1.1,0,1.7,0.6,1.7,1.5c0,0.9-0.6,1.5-1.8,1.5L63.5,89.2L63.5,89.2z"/>
<path class="st0" d="M68.6,94.4h2.1l0.7-2h3.8l0.7,2h2.1l-3.7-10h-1.9L68.6,94.4L68.6,94.4z M71.9,90.7l1.3-3.9h0l1.3,3.9H71.9
	L71.9,90.7z"/>
<path class="st0" d="M79.2,94.4h3.6c2.7,0,3.7-1.2,3.7-3.3c0-1.7-0.9-3-3.6-3h-1.7v-2h4.5v-1.8h-6.4L79.2,94.4L79.2,94.4z
	 M81.2,92.6v-2.8h1.7c1,0,1.6,0.4,1.6,1.4c0,0.9-0.5,1.4-1.6,1.4H81.2L81.2,92.6z"/>
<path class="st0" d="M92.6,94.5c2.9,0,5.1-2.1,5.1-5.1c0-3-2.1-5.1-5.1-5.1c-3,0-5.1,2.1-5.1,5.1C87.5,92.3,89.6,94.5,92.6,94.5z
	 M92.6,92.6c-1.8,0-3-1.4-3-3.3s1.2-3.3,3-3.3c1.7,0,3,1.4,3,3.3C95.6,91.3,94.3,92.6,92.6,92.6z"/>
<polygon class="st0" points="100.8,94.4 102.8,94.4 102.8,86.1 105.6,86.1 105.6,84.4 98.1,84.4 98.1,86.1 100.8,86.1 "/>
<path class="st0" d="M111.1,94.5c2.9,0,5.1-2.1,5.1-5.1c0-3-2.1-5.1-5.1-5.1c-3,0-5.1,2.1-5.1,5.1C106,92.3,108.1,94.5,111.1,94.5z
	 M111.1,92.6c-1.8,0-3-1.4-3-3.3s1.2-3.3,3-3.3c1.7,0,3,1.4,3,3.3C114.1,91.3,112.8,92.6,111.1,92.6z"/>
<polygon class="st0" points="117.9,94.4 119.9,94.4 119.9,91.5 120.8,90.3 123.5,94.4 125.9,94.4 122.1,88.8 125.8,84.4 123.3,84.4 
	119.9,88.7 119.9,88.7 119.9,84.4 117.9,84.4 "/>
<path class="st0" d="M35.5,105h0.9v-2.8h1.5c1.5,0,2.5-0.7,2.5-2.2c0-1.3-0.7-2.2-2.4-2.2h-2.5L35.5,105L35.5,105z M36.4,101.5v-2.8
	H38c1,0,1.5,0.5,1.5,1.4c0,0.8-0.5,1.4-1.7,1.4L36.4,101.5L36.4,101.5z"/>
<polygon class="st0" points="41.7,105 46.3,105 46.3,104.2 42.6,104.2 42.6,101.9 45.5,101.9 45.5,101 42.6,101 42.6,98.7 
	46.1,98.7 46.1,97.8 41.7,97.8 "/>
<path class="st0" d="M50.7,105.1c1.3,0,2.2-0.6,2.8-1.4l-0.7-0.6c-0.5,0.6-1.2,1.1-2.1,1.1c-1.5,0-2.6-1.1-2.6-2.8
	c0-1.7,1-2.8,2.6-2.8c0.8,0,1.5,0.3,2.1,1.1l0.7-0.6c-0.8-0.9-1.8-1.4-2.8-1.4c-2.3,0-3.6,1.7-3.6,3.7
	C47.1,103.8,48.8,105.1,50.7,105.1z"/>
<polygon class="st0" points="54.8,105 55.7,105 55.7,98.7 59.1,98.7 59.1,105 60,105 60,97.8 54.8,97.8 "/>
<path class="st0" d="M66.3,97.8l-1.9,4.2h0l-2.3-4.2h-1l2.9,5.2c-0.3,0.8-0.6,1.2-1.1,1.2c-0.3,0-0.6-0.1-0.8-0.3l-0.3,0.8
	c0.3,0.2,0.8,0.4,1.2,0.4c1.1,0,1.5-0.9,1.9-1.9l2.4-5.3L66.3,97.8L66.3,97.8z"/>
<path class="st0" d="M68.2,105h2.4c1.7,0,2.5-0.8,2.5-2.2c0-1.3-0.8-2.1-2.5-2.1h-1.5v-2.1h3.5v-0.8h-4.4L68.2,105L68.2,105z
	 M69.1,104.2v-2.8h1.5c1,0,1.6,0.5,1.6,1.4c0,0.8-0.5,1.4-1.6,1.4L69.1,104.2L69.1,104.2z"/>
<path class="st0" d="M75.6,97.8c-0.1,1.4-0.1,2.8-0.2,3.9c-0.2,1.7-0.5,2.5-1.3,2.5c-0.1,0-0.3,0-0.3,0l-0.1,0.7
	c0.1,0.1,0.4,0.1,0.6,0.1c1.2,0,1.7-1,1.9-3c0.1-0.9,0.2-2.2,0.3-3.4H79v6.4h0.9v-7.2L75.6,97.8L75.6,97.8z"/>
<polygon class="st0" points="81.7,105 82.5,105 86.4,99.4 86.5,99.4 86.5,105 87.3,105 87.3,97.8 86.6,97.8 82.6,103.6 82.6,103.6 
	82.6,97.8 81.7,97.8 "/>
<polygon class="st0" points="89.1,105 90,105 90,103 91.1,101.8 93.4,105 94.5,105 91.6,101.1 94.4,97.8 93.3,97.8 90,101.8 
	90,101.8 90,97.8 89.1,97.8 "/>
<polygon class="st0" points="95.6,105 96.4,105 100.4,99.4 100.4,99.4 100.4,105 101.3,105 101.3,97.8 100.5,97.8 96.6,103.6 
	96.5,103.6 96.5,97.8 95.6,97.8 "/>
<path class="st0" d="M105.8,105h2.4c1.7,0,2.5-0.8,2.5-2.2c0-1.3-0.8-2.1-2.5-2.1h-1.5v-2.1h3.5v-0.8h-4.4V105L105.8,105z
	 M106.7,104.2v-2.8h1.5c1,0,1.6,0.5,1.6,1.4c0,0.8-0.5,1.4-1.6,1.4L106.7,104.2L106.7,104.2z"/>
<path class="st0" d="M111.4,105h0.9l0.6-1.8h3.2l0.7,1.8h0.9l-2.7-7.2h-0.9L111.4,105z M113.3,102.5l1.3-3.6h0l1.3,3.6H113.3
	L113.3,102.5z"/>
<polygon class="st0" points="126,97.8 126,104.2 123.3,104.2 123.3,97.8 122.4,97.8 122.4,104.2 119.8,104.2 119.8,97.8 118.9,97.8 
	118.9,105 126.9,105 126.9,97.8 "/>
<polygon class="st0" points="128.6,105 129.5,105 129.5,103 130.6,101.8 132.9,105 134,105 131.2,101.1 133.9,97.8 132.8,97.8 
	129.6,101.8 129.5,101.8 129.5,97.8 128.6,97.8 "/>
<path class="st0" d="M138,105.1c2,0,3.6-1.5,3.6-3.6c0-2.2-1.6-3.7-3.6-3.7c-2.1,0-3.6,1.5-3.6,3.7
	C134.4,103.6,135.9,105.1,138,105.1z M138,104.3c-1.5,0-2.7-1.2-2.7-2.8c0-1.6,1.1-2.8,2.7-2.8c1.5,0,2.6,1.2,2.6,2.8
	C140.7,103.1,139.5,104.3,138,104.3z"/>
<path class="st0" d="M143.1,105h0.9v-2.8h1.5c1.5,0,2.5-0.7,2.5-2.2c0-1.3-0.7-2.2-2.4-2.2H143L143.1,105L143.1,105z M143.9,101.5
	v-2.8h1.5c1,0,1.5,0.5,1.5,1.4c0,0.8-0.5,1.4-1.7,1.4L143.9,101.5L143.9,101.5z"/>
<polygon class="st0" points="150.8,105 151.7,105 151.7,98.7 153.9,98.7 153.9,97.8 148.7,97.8 148.7,98.7 150.8,98.7 "/>
<path class="st0" d="M157.9,105.1c2,0,3.6-1.5,3.6-3.6c0-2.2-1.6-3.7-3.6-3.7c-2.1,0-3.6,1.5-3.6,3.7S155.8,105.1,157.9,105.1z
	 M157.9,104.3c-1.5,0-2.7-1.2-2.7-2.8c0-1.6,1.1-2.8,2.7-2.8c1.5,0,2.6,1.2,2.6,2.8C160.5,103.1,159.3,104.3,157.9,104.3z"/>
<path class="st0" d="M166.2,105.1c1.3,0,2.2-0.6,2.8-1.4l-0.7-0.6c-0.5,0.6-1.2,1.1-2.1,1.1c-1.5,0-2.6-1.1-2.6-2.8
	c0-1.7,1-2.8,2.6-2.8c0.8,0,1.5,0.3,2.1,1.1l0.7-0.6c-0.8-0.9-1.8-1.4-2.8-1.4c-2.3,0-3.6,1.7-3.6,3.7
	C162.6,103.8,164.2,105.1,166.2,105.1z"/>
<polygon class="st0" points="171.8,105 172.7,105 172.7,98.7 174.8,98.7 174.8,97.8 169.6,97.8 169.6,98.7 171.8,98.7 "/>
<path class="st0" d="M174.7,105h0.9l0.6-1.8h3.2l0.7,1.8h0.9l-2.7-7.2h-0.9L174.7,105z M176.5,102.5l1.3-3.6h0l1.3,3.6H176.5
	L176.5,102.5z"/>
<polygon class="st0" points="182.1,105 183,105 183,102 186.8,102 186.8,105 187.7,105 187.7,97.8 186.8,97.8 186.8,101.2 
	183,101.2 183,97.8 182.1,97.8 "/>
<linearGradient id="SVGID_1_" gradientUnits="userSpaceOnUse" x1="33286.8398" y1="5738.3032" x2="31986.9375" y2="5136.3989" gradientTransform="matrix(2.834646e-02 0 0 2.834646e-02 -781.4151 -133.5521)">
	<stop  offset="0" style="stop-color:#1C70B6"/>
	<stop  offset="1" style="stop-color:#1B2F4A"/>
</linearGradient>
<polygon class="st1" points="123,45.4 74.8,33 195,0 "/>
<linearGradient id="SVGID_2_" gradientUnits="userSpaceOnUse" x1="33448.0703" y1="6059.3608" x2="33096.5273" y2="5354.6133" gradientTransform="matrix(2.834646e-02 0 0 2.834646e-02 -781.4151 -133.5521)">
	<stop  offset="0" style="stop-color:#009846"/>
	<stop  offset="1" style="stop-color:#063C2C"/>
</linearGradient>
<polygon class="st2" points="195,0 123,45.4 149.3,73.8 "/>
<linearGradient id="SVGID_3_" gradientUnits="userSpaceOnUse" x1="32969.5" y1="5517.5864" x2="33603.8672" y2="5500.0132" gradientTransform="matrix(2.834646e-02 0 0 2.834646e-02 -781.4151 -133.5521)">
	<stop  offset="0" style="stop-color:#D9DADA"/>
	<stop  offset="1" style="stop-color:#FEFEFE"/>
</linearGradient>
<polygon class="st3" points="123,45.4 108.5,41.7 195,0 "/>
<linearGradient id="SVGID_4_" gradientUnits="userSpaceOnUse" x1="33004.9844" y1="7039.438" x2="32496.1211" y2="5899.6318" gradientTransform="matrix(2.834646e-02 0 0 2.834646e-02 -781.4151 -133.5521)">
	<stop  offset="0" style="stop-color:#009846"/>
	<stop  offset="1" style="stop-color:#063C2C"/>
</linearGradient>
<polygon class="st4" points="166.9,45.4 144.7,31.7 123,45.4 149.3,73.8 "/>
<linearGradient id="SVGID_5_" gradientUnits="userSpaceOnUse" x1="34398.0039" y1="5659.9888" x2="34062.1875" y2="5006.2935" gradientTransform="matrix(2.834646e-02 0 0 2.834646e-02 -781.4151 -133.5521)">
	<stop  offset="0" style="stop-color:#009846"/>
	<stop  offset="1" style="stop-color:#063C2C"/>
</linearGradient>
<polygon class="st5" points="195,0 177.1,11.3 178.4,26.8 "/>
<linearGradient id="SVGID_6_" gradientUnits="userSpaceOnUse" x1="32063.5527" y1="6058.9688" x2="32330.7461" y2="6014.2979" gradientTransform="matrix(2.834646e-02 0 0 2.834646e-02 -781.4151 -133.5521)">
	<stop  offset="0" style="stop-color:#D9DADA"/>
	<stop  offset="1" style="stop-color:#FEFEFE"/>
</linearGradient>
<polygon class="st6" points="123,45.4 108.5,41.7 130,31.4 144.7,31.7 "/>
<linearGradient id="SVGID_7_" gradientUnits="userSpaceOnUse" x1="33993.5156" y1="4935.7671" x2="34187.6445" y2="4930.4004" gradientTransform="matrix(2.834646e-02 0 0 2.834646e-02 -781.4151 -133.5521)">
	<stop  offset="0" style="stop-color:#D9DADA"/>
	<stop  offset="1" style="stop-color:#FEFEFE"/>
</linearGradient>
<polygon class="st7" points="177.1,11.3 168.5,12.7 195,0 "/>
<linearGradient id="SVGID_8_" gradientUnits="userSpaceOnUse" x1="31635.8848" y1="6104.1294" x2="31016.5938" y2="5755.1768" gradientTransform="matrix(2.834646e-02 0 0 2.834646e-02 -781.4151 -133.5521)">
	<stop  offset="0" style="stop-color:#1C70B6"/>
	<stop  offset="1" style="stop-color:#1B2F4A"/>
</linearGradient>
<polygon class="st8" points="108.5,41.7 74.8,33 91.3,28.4 130,31.4 "/>
<linearGradient id="SVGID_9_" gradientUnits="userSpaceOnUse" x1="33938.4219" y1="5161.0522" x2="33369.3516" y2="4897.5586" gradientTransform="matrix(2.834646e-02 0 0 2.834646e-02 -781.4151 -133.5521)">
	<stop  offset="0" style="stop-color:#1C70B6"/>
	<stop  offset="1" style="stop-color:#1B2F4A"/>
</linearGradient>
<polygon class="st9" points="168.5,12.7 142.4,14.4 195,0 "/>
</svg>
